<svg xmlns="http://www.w3.org/2000/svg" xmlns:xlink="http://www.w3.org/1999/xlink" width="1920" zoomAndPan="magnify" viewBox="0 0 1440 809.999993" height="1080" preserveAspectRatio="xMidYMid meet" version="1.0"><path fill="#caddff" d="M 1090.097656 171.410156 C 1064.539062 119.859375 1013.46875 92.003906 981.796875 74.730469 C 844.894531 0.0546875 658.382812 19.9375 534.421875 89.566406 C 412.0625 158.289062 305.421875 321.011719 350.125 497.8125 C 395 675.292969 529.679688 759.863281 661.78125 779.210938 C 871.535156 809.933594 1087.738281 676.851562 1097.382812 628.339844 C 1100.355469 613.375 1099.582031 600.121094 1099.582031 600.121094 C 1095.855469 565.101562 1067.039062 544.296875 1060.328125 464.484375 C 1047.976562 317.632812 1134.921875 261.824219 1090.097656 171.410156 " fill-opacity="1" fill-rule="nonzero"/><path fill="#99b9ff" d="M 794.203125 488.628906 L 795.890625 42.191406 C 795.914062 36.195312 800.769531 31.3125 806.742188 31.285156 L 1092.058594 29.996094 C 1098.027344 29.96875 1102.847656 34.808594 1102.824219 40.808594 L 1101.140625 487.246094 C 1101.117188 493.242188 1096.257812 498.128906 1090.285156 498.15625 L 804.972656 499.441406 C 799 499.46875 794.179688 494.628906 794.203125 488.628906 " fill-opacity="1" fill-rule="nonzero"/><path fill="#ffffff" d="M 770.660156 471.476562 L 772.210938 61.722656 C 772.230469 55.722656 777.085938 50.839844 783.058594 50.8125 L 1068.375 49.523438 C 1074.347656 49.496094 1079.164062 54.339844 1079.140625 60.339844 L 1077.589844 470.09375 C 1077.566406 476.09375 1072.707031 480.976562 1066.742188 481.007812 L 781.425781 482.292969 C 775.460938 482.316406 770.632812 477.476562 770.660156 471.476562 " fill-opacity="1" fill-rule="nonzero"/><path fill="#caddff" d="M 758.570312 469.640625 L 760.121094 59.886719 C 760.144531 53.886719 765.003906 49.003906 770.972656 48.976562 L 1056.292969 47.6875 C 1062.257812 47.660156 1067.082031 52.5 1067.058594 58.5 L 1065.503906 468.257812 C 1065.484375 474.257812 1060.625 479.140625 1054.65625 479.171875 L 769.335938 480.457031 C 763.371094 480.484375 758.546875 475.640625 758.570312 469.640625 " fill-opacity="1" fill-rule="nonzero"/><path fill="#5479f7" d="M 742.660156 497.492188 L 744.414062 33.796875 C 744.433594 27.796875 749.296875 22.914062 755.257812 22.882812 L 1040.578125 21.601562 C 1046.546875 21.574219 1051.375 26.414062 1051.347656 32.414062 L 1049.597656 496.105469 C 1049.570312 502.105469 1044.714844 506.992188 1038.746094 507.015625 L 753.425781 508.304688 C 747.457031 508.332031 742.640625 503.492188 742.660156 497.492188 " fill-opacity="1" fill-rule="nonzero"/><path fill="#000000" d="M 653.398438 572.378906 C 654.613281 571.707031 655.839844 571.054688 657.082031 570.433594 C 668.023438 564.96875 679.832031 560.890625 691.320312 556.722656 C 733.863281 541.289062 777.707031 529.925781 821.050781 517.042969 C 836.394531 512.484375 851.738281 507.992188 867.167969 503.796875 C 926.589844 379.265625 1033.457031 152.429688 1023.484375 152.429688 L 445.335938 130.117188 C 431.585938 130.117188 420.367188 141.296875 420.367188 155.042969 L 420.367188 558.464844 C 420.367188 572.210938 431.585938 583.390625 445.335938 583.390625 L 654.242188 569.242188 L 653.398438 572.378906 " fill-opacity="1" fill-rule="nonzero"/><path fill="#ffffff" d="M 825.261719 531.921875 L 677.84375 531.921875 L 636.019531 684.527344 L 867.089844 684.527344 L 825.261719 531.921875 " fill-opacity="1" fill-rule="nonzero"/><path fill="#000000" d="M 637.828125 683.148438 L 865.277344 683.148438 L 824.214844 533.300781 L 678.890625 533.300781 Z M 867.085938 685.90625 L 636.019531 685.90625 C 635.585938 685.90625 635.183594 685.703125 634.925781 685.359375 C 634.660156 685.019531 634.574219 684.578125 634.6875 684.160156 L 676.511719 531.558594 C 676.675781 530.960938 677.21875 530.542969 677.84375 530.542969 L 825.261719 530.542969 C 825.882812 530.542969 826.429688 530.960938 826.59375 531.558594 L 868.417969 684.160156 C 868.53125 684.578125 868.441406 685.019531 868.183594 685.359375 C 867.921875 685.703125 867.519531 685.90625 867.085938 685.90625 " fill-opacity="1" fill-rule="nonzero"/><path fill="#ffffff" d="M 1068.726562 155.085938 C 1068.726562 142.097656 1058.195312 131.570312 1045.203125 131.570312 L 456.769531 131.570312 C 443.777344 131.570312 433.246094 142.097656 433.246094 155.085938 L 433.246094 558.507812 C 433.246094 571.496094 443.777344 582.027344 456.769531 582.027344 L 1045.203125 582.027344 C 1058.195312 582.027344 1068.726562 571.496094 1068.726562 558.507812 L 1068.726562 155.085938 " fill-opacity="1" fill-rule="nonzero"/><path fill="#ffffff" d="M 892.179688 668.898438 L 610.925781 668.898438 C 602.839844 668.898438 596.289062 675.066406 596.289062 683.148438 C 596.289062 691.226562 602.839844 697.394531 610.925781 697.394531 L 892.179688 697.394531 C 900.265625 697.394531 906.816406 691.226562 906.816406 683.148438 C 906.816406 675.066406 900.265625 668.898438 892.179688 668.898438 " fill-opacity="1" fill-rule="nonzero"/><path fill="#000000" d="M 610.925781 670.277344 C 603.492188 670.277344 597.667969 675.929688 597.667969 683.148438 C 597.667969 690.363281 603.492188 696.015625 610.925781 696.015625 L 892.175781 696.015625 C 899.613281 696.015625 905.433594 690.363281 905.433594 683.148438 C 905.433594 675.929688 899.613281 670.277344 892.175781 670.277344 Z M 892.175781 698.773438 L 610.925781 698.773438 C 601.945312 698.773438 594.910156 691.910156 594.910156 683.148438 C 594.910156 674.382812 601.945312 667.519531 610.925781 667.519531 L 892.175781 667.519531 C 901.15625 667.519531 908.195312 674.382812 908.195312 683.148438 C 908.195312 691.910156 901.15625 698.773438 892.175781 698.773438 " fill-opacity="1" fill-rule="nonzero"/><path fill="#000000" d="M 1068.261719 383.917969 C 1067.5 383.917969 1066.882812 383.300781 1066.882812 382.539062 L 1066.882812 155.546875 C 1066.882812 143.34375 1056.949219 133.414062 1044.738281 133.414062 L 1002.507812 133.414062 C 1001.742188 133.414062 1001.132812 132.792969 1001.132812 132.03125 C 1001.132812 131.269531 1001.742188 130.652344 1002.507812 130.652344 L 1044.738281 130.652344 C 1058.472656 130.652344 1069.644531 141.824219 1069.644531 155.546875 L 1069.644531 382.539062 C 1069.644531 383.300781 1069.027344 383.917969 1068.261719 383.917969 " fill-opacity="1" fill-rule="nonzero"/><path fill="#000000" d="M 862.722656 583.863281 L 456.3125 583.863281 C 442.578125 583.863281 431.40625 572.699219 431.40625 558.96875 L 431.40625 155.550781 C 431.40625 141.824219 442.578125 130.652344 456.3125 130.652344 L 481.066406 130.652344 C 481.828125 130.652344 482.445312 131.273438 482.445312 132.035156 C 482.445312 132.792969 481.828125 133.414062 481.066406 133.414062 L 456.3125 133.414062 C 444.097656 133.414062 434.164062 143.339844 434.164062 155.550781 L 434.164062 558.96875 C 434.164062 571.175781 444.097656 581.105469 456.3125 581.105469 L 862.722656 581.105469 C 863.488281 581.105469 864.101562 581.722656 864.101562 582.484375 C 864.101562 583.246094 863.488281 583.863281 862.722656 583.863281 " fill-opacity="1" fill-rule="nonzero"/><path fill="#caddff" d="M 1048.492188 164.40625 C 1048.492188 157.953125 1043.257812 152.714844 1036.796875 152.714844 L 466.09375 152.714844 C 459.636719 152.714844 454.398438 157.953125 454.398438 164.40625 L 454.398438 550.109375 C 454.398438 556.566406 459.636719 561.800781 466.09375 561.800781 L 1036.796875 561.800781 C 1043.257812 561.800781 1048.492188 556.566406 1048.492188 550.109375 L 1048.492188 164.40625 " fill-opacity="1" fill-rule="nonzero"/><path fill="#99b9ff" d="M 566.601562 549.851562 L 566.683594 452.402344 L 531.511719 452.402344 L 531.4375 549.851562 L 566.601562 549.851562 " fill-opacity="1" fill-rule="nonzero"/><path fill="#99b9ff" d="M 608.769531 549.851562 L 609.710938 415.632812 L 574.539062 415.632812 L 573.601562 549.851562 L 608.769531 549.851562 " fill-opacity="1" fill-rule="nonzero"/><path fill="#99b9ff" d="M 650.933594 549.851562 L 651.589844 425.746094 L 616.417969 425.746094 L 615.765625 549.851562 L 650.933594 549.851562 " fill-opacity="1" fill-rule="nonzero"/><path fill="#99b9ff" d="M 693.097656 549.851562 L 694.316406 379.78125 L 659.140625 379.78125 L 657.933594 549.851562 L 693.097656 549.851562 " fill-opacity="1" fill-rule="nonzero"/><path fill="#99b9ff" d="M 735.265625 549.851562 L 736.441406 335.652344 L 701.269531 335.652344 L 700.09375 549.851562 L 735.265625 549.851562 " fill-opacity="1" fill-rule="nonzero"/><path fill="#99b9ff" d="M 777.425781 549.851562 L 779.511719 348.523438 L 744.34375 348.523438 L 742.261719 549.851562 L 777.425781 549.851562 " fill-opacity="1" fill-rule="nonzero"/><path fill="#99b9ff" d="M 820.390625 549.851562 L 823.046875 315.433594 L 787.875 315.433594 L 785.222656 549.851562 L 820.390625 549.851562 " fill-opacity="1" fill-rule="nonzero"/><path fill="#99b9ff" d="M 863.339844 549.851562 L 866.910156 304.398438 L 831.742188 304.398438 L 828.171875 549.851562 L 863.339844 549.851562 " fill-opacity="1" fill-rule="nonzero"/><path fill="#99b9ff" d="M 906.304688 549.847656 L 908.582031 369.671875 L 873.414062 369.671875 L 871.132812 549.847656 L 906.304688 549.847656 " fill-opacity="1" fill-rule="nonzero"/><path fill="#99b9ff" d="M 949.277344 549.847656 L 952.378906 409.199219 L 917.207031 409.199219 L 914.109375 549.847656 L 949.277344 549.847656 " fill-opacity="1" fill-rule="nonzero"/><path fill="#99b9ff" d="M 992.234375 549.847656 L 993.988281 427.582031 L 958.816406 427.582031 L 957.070312 549.847656 L 992.234375 549.847656 " fill-opacity="1" fill-rule="nonzero"/><path fill="#99b9ff" d="M 1035.203125 549.847656 L 1037.148438 422.988281 L 1001.972656 422.988281 L 1000.027344 549.847656 L 1035.203125 549.847656 " fill-opacity="1" fill-rule="nonzero"/><path fill="#000000" d="M 761.25 329.3125 C 760.914062 329.3125 760.589844 329.183594 760.335938 328.964844 L 734.105469 305.816406 C 733.535156 305.308594 733.480469 304.4375 733.984375 303.867188 C 734.492188 303.296875 735.363281 303.242188 735.933594 303.746094 L 761.128906 325.980469 L 822.382812 256.34375 C 822.621094 256.070312 822.964844 255.902344 823.332031 255.882812 C 823.703125 255.855469 824.054688 255.980469 824.332031 256.222656 L 857.320312 285.347656 L 896.382812 240.9375 C 896.886719 240.363281 897.761719 240.308594 898.332031 240.8125 C 898.90625 241.316406 898.960938 242.183594 898.457031 242.757812 L 858.484375 288.203125 C 858.234375 288.480469 857.902344 288.648438 857.535156 288.667969 C 857.164062 288.695312 856.808594 288.570312 856.53125 288.324219 L 823.539062 259.203125 L 762.285156 328.839844 C 762.046875 329.113281 761.703125 329.28125 761.335938 329.308594 C 761.308594 329.308594 761.277344 329.3125 761.25 329.3125 " fill-opacity="1" fill-rule="nonzero"/><path fill="#000000" d="M 534.890625 433.265625 C 534.566406 433.265625 534.242188 433.152344 533.980469 432.921875 C 533.40625 432.421875 533.351562 431.550781 533.855469 430.976562 L 586.976562 370.585938 C 587.21875 370.3125 587.558594 370.144531 587.925781 370.121094 C 588.296875 370.101562 588.652344 370.222656 588.925781 370.464844 L 624.84375 402.171875 L 710.621094 304.664062 C 711.125 304.089844 711.996094 304.039062 712.566406 304.542969 C 713.140625 305.042969 713.195312 305.914062 712.695312 306.488281 L 626.003906 405.027344 C 625.761719 405.304688 625.421875 405.476562 625.058594 405.496094 C 624.691406 405.519531 624.332031 405.394531 624.058594 405.15625 L 588.136719 373.445312 L 535.925781 432.796875 C 535.652344 433.109375 535.273438 433.265625 534.890625 433.265625 " fill-opacity="1" fill-rule="nonzero"/><path fill="#5479f7" d="M 582.089844 371.5 C 581.675781 368.246094 583.996094 365.613281 587.265625 365.613281 C 590.539062 365.613281 593.523438 368.246094 593.933594 371.5 C 594.347656 374.75 592.027344 377.382812 588.757812 377.382812 C 585.484375 377.382812 582.5 374.75 582.089844 371.5 " fill-opacity="1" fill-rule="nonzero"/><path fill="#000000" d="M 587.265625 362.855469 C 584.882812 362.855469 582.742188 363.796875 581.230469 365.507812 C 579.71875 367.222656 579.050781 369.476562 579.351562 371.84375 C 579.941406 376.496094 584.074219 380.140625 588.757812 380.140625 C 591.140625 380.140625 593.285156 379.199219 594.792969 377.488281 C 596.304688 375.773438 596.972656 373.523438 596.671875 371.148438 C 596.082031 366.5 591.953125 362.855469 587.265625 362.855469 Z M 587.265625 365.613281 C 590.539062 365.613281 593.523438 368.246094 593.933594 371.5 C 594.347656 374.75 592.027344 377.382812 588.757812 377.382812 C 585.484375 377.382812 582.5 374.75 582.089844 371.5 C 581.675781 368.246094 583.996094 365.613281 587.265625 365.613281 " fill-opacity="1" fill-rule="nonzero"/><path fill="#99b9ff" d="M 755.480469 327.6875 C 755.070312 324.4375 757.386719 321.800781 760.660156 321.800781 C 763.929688 321.800781 766.914062 324.4375 767.328125 327.6875 C 767.734375 330.9375 765.417969 333.574219 762.148438 333.574219 C 758.878906 333.574219 755.894531 330.9375 755.480469 327.6875 " fill-opacity="1" fill-rule="nonzero"/><path fill="#000000" d="M 760.660156 319.046875 C 758.273438 319.046875 756.128906 319.988281 754.621094 321.699219 C 753.109375 323.414062 752.441406 325.660156 752.742188 328.03125 C 753.335938 332.6875 757.464844 336.332031 762.148438 336.332031 C 764.53125 336.332031 766.675781 335.386719 768.1875 333.679688 C 769.695312 331.960938 770.363281 329.710938 770.0625 327.339844 C 769.472656 322.6875 765.34375 319.046875 760.660156 319.046875 Z M 760.660156 321.800781 C 763.929688 321.800781 766.914062 324.4375 767.328125 327.6875 C 767.734375 330.9375 765.417969 333.574219 762.148438 333.574219 C 758.878906 333.574219 755.894531 330.9375 755.480469 327.6875 C 755.070312 324.4375 757.386719 321.800781 760.660156 321.800781 " fill-opacity="1" fill-rule="nonzero"/><path fill="#5479f7" d="M 818.023438 256.589844 C 817.609375 253.339844 819.925781 250.703125 823.199219 250.703125 C 826.472656 250.703125 829.457031 253.339844 829.871094 256.589844 C 830.28125 259.839844 827.964844 262.476562 824.691406 262.476562 C 821.421875 262.476562 818.4375 259.839844 818.023438 256.589844 " fill-opacity="1" fill-rule="nonzero"/><path fill="#000000" d="M 823.199219 247.945312 C 820.816406 247.945312 818.671875 248.890625 817.164062 250.597656 C 815.65625 252.316406 814.984375 254.566406 815.285156 256.9375 C 815.875 261.589844 820.007812 265.234375 824.691406 265.234375 C 827.070312 265.234375 829.21875 264.289062 830.726562 262.582031 C 832.238281 260.867188 832.90625 258.617188 832.609375 256.246094 C 832.015625 251.589844 827.882812 247.945312 823.199219 247.945312 Z M 823.199219 250.703125 C 826.472656 250.703125 829.457031 253.339844 829.871094 256.589844 C 830.28125 259.839844 827.964844 262.476562 824.691406 262.476562 C 821.421875 262.476562 818.4375 259.839844 818.023438 256.589844 C 817.609375 253.339844 819.925781 250.703125 823.199219 250.703125 " fill-opacity="1" fill-rule="nonzero"/><path fill="#99b9ff" d="M 852.304688 286.847656 C 851.894531 283.597656 854.210938 280.964844 857.484375 280.964844 C 860.753906 280.964844 863.742188 283.597656 864.148438 286.847656 C 864.5625 290.101562 862.246094 292.738281 858.972656 292.738281 C 855.699219 292.738281 852.714844 290.101562 852.304688 286.847656 " fill-opacity="1" fill-rule="nonzero"/><path fill="#000000" d="M 857.484375 278.207031 C 855.101562 278.207031 852.957031 279.148438 851.449219 280.863281 C 849.9375 282.574219 849.269531 284.824219 849.566406 287.195312 C 850.15625 291.847656 854.285156 295.496094 858.972656 295.496094 C 861.355469 295.496094 863.5 294.554688 865.007812 292.839844 C 866.523438 291.128906 867.1875 288.875 866.886719 286.503906 C 866.300781 281.851562 862.164062 278.207031 857.484375 278.207031 Z M 857.484375 280.964844 C 860.753906 280.964844 863.742188 283.597656 864.148438 286.847656 C 864.5625 290.101562 862.246094 292.738281 858.972656 292.738281 C 855.699219 292.738281 852.714844 290.101562 852.304688 286.847656 C 851.894531 283.597656 854.210938 280.964844 857.484375 280.964844 " fill-opacity="1" fill-rule="nonzero"/><path fill="#99b9ff" d="M 890.355469 243.589844 C 889.949219 240.339844 892.269531 237.703125 895.539062 237.703125 C 898.808594 237.703125 901.792969 240.339844 902.203125 243.589844 C 902.617188 246.839844 900.300781 249.476562 897.027344 249.476562 C 893.753906 249.476562 890.769531 246.839844 890.355469 243.589844 " fill-opacity="1" fill-rule="nonzero"/><path fill="#000000" d="M 895.535156 234.949219 C 893.148438 234.949219 891.011719 235.890625 889.496094 237.601562 C 887.984375 239.316406 887.320312 241.566406 887.617188 243.9375 C 888.207031 248.59375 892.335938 252.234375 897.023438 252.234375 C 899.40625 252.234375 901.550781 251.292969 903.058594 249.582031 C 904.574219 247.867188 905.238281 245.617188 904.941406 243.246094 C 904.355469 238.59375 900.222656 234.949219 895.535156 234.949219 Z M 895.535156 237.710938 C 898.804688 237.710938 901.792969 240.34375 902.203125 243.59375 C 902.613281 246.84375 900.296875 249.480469 897.023438 249.480469 C 893.75 249.480469 890.769531 246.84375 890.355469 243.59375 C 889.949219 240.34375 892.265625 237.710938 895.535156 237.710938 " fill-opacity="1" fill-rule="nonzero"/><path fill="#99b9ff" d="M 619.503906 403.4375 C 619.097656 400.1875 621.414062 397.550781 624.6875 397.550781 C 627.953125 397.550781 630.945312 400.1875 631.351562 403.4375 C 631.765625 406.6875 629.445312 409.324219 626.175781 409.324219 C 622.902344 409.324219 619.917969 406.6875 619.503906 403.4375 " fill-opacity="1" fill-rule="nonzero"/><path fill="#000000" d="M 624.6875 394.796875 C 622.300781 394.796875 620.160156 395.738281 618.652344 397.445312 C 617.136719 399.164062 616.46875 401.414062 616.769531 403.785156 C 617.359375 408.4375 621.488281 412.082031 626.175781 412.082031 C 628.558594 412.082031 630.699219 411.136719 632.210938 409.429688 C 633.722656 407.714844 634.390625 405.460938 634.089844 403.09375 C 633.503906 398.4375 629.371094 394.796875 624.6875 394.796875 Z M 624.6875 397.550781 C 627.953125 397.550781 630.945312 400.1875 631.351562 403.4375 C 631.765625 406.6875 629.445312 409.324219 626.175781 409.324219 C 622.902344 409.324219 619.917969 406.6875 619.503906 403.4375 C 619.097656 400.1875 621.414062 397.550781 624.6875 397.550781 " fill-opacity="1" fill-rule="nonzero"/><path fill="#5479f7" d="M 716.390625 293.972656 C 715.976562 290.726562 718.292969 288.085938 721.566406 288.085938 C 724.839844 288.085938 727.824219 290.726562 728.238281 293.972656 C 728.648438 297.222656 726.328125 299.859375 723.058594 299.859375 C 719.789062 299.859375 716.804688 297.222656 716.390625 293.972656 " fill-opacity="1" fill-rule="nonzero"/><path fill="#000000" d="M 721.566406 285.328125 C 719.183594 285.328125 717.039062 286.273438 715.53125 287.980469 C 714.019531 289.699219 713.351562 291.949219 713.652344 294.320312 C 714.242188 298.972656 718.375 302.617188 723.058594 302.617188 C 725.441406 302.617188 727.585938 301.675781 729.09375 299.960938 C 730.605469 298.25 731.273438 296 730.96875 293.628906 C 730.382812 288.972656 726.253906 285.328125 721.566406 285.328125 Z M 721.566406 288.085938 C 724.839844 288.085938 727.824219 290.726562 728.238281 293.972656 C 728.648438 297.222656 726.328125 299.863281 723.058594 299.863281 C 719.789062 299.863281 716.804688 297.222656 716.390625 293.972656 C 715.976562 290.726562 718.292969 288.085938 721.566406 288.085938 " fill-opacity="1" fill-rule="nonzero"/><path fill="#99b9ff" d="M 527.6875 432.34375 C 527.277344 429.089844 529.597656 426.457031 532.867188 426.457031 C 536.136719 426.457031 539.125 429.089844 539.535156 432.34375 C 539.945312 435.59375 537.628906 438.230469 534.355469 438.230469 C 531.085938 438.230469 528.101562 435.59375 527.6875 432.34375 " fill-opacity="1" fill-rule="nonzero"/><path fill="#000000" d="M 532.867188 423.699219 C 530.484375 423.699219 528.339844 424.640625 526.832031 426.355469 C 525.320312 428.066406 524.652344 430.316406 524.953125 432.691406 C 525.542969 437.34375 529.671875 440.988281 534.355469 440.988281 C 536.742188 440.988281 538.886719 440.046875 540.394531 438.332031 C 541.90625 436.617188 542.570312 434.367188 542.273438 431.996094 C 541.683594 427.34375 537.550781 423.699219 532.867188 423.699219 Z M 532.867188 426.457031 C 536.136719 426.457031 539.125 429.089844 539.535156 432.34375 C 539.945312 435.59375 537.628906 438.230469 534.355469 438.230469 C 531.085938 438.230469 528.101562 435.59375 527.6875 432.34375 C 527.277344 429.089844 529.597656 426.457031 532.867188 426.457031 " fill-opacity="1" fill-rule="nonzero"/><path fill="#99b9ff" d="M 656.101562 233.613281 L 488.628906 233.613281 C 487.5625 233.613281 486.527344 231.59375 486.433594 229.035156 L 486.039062 217.972656 C 485.964844 215.914062 486.554688 214.308594 487.414062 214.308594 L 654.882812 214.308594 C 655.945312 214.308594 656.988281 216.839844 657.082031 219.394531 L 657.472656 230.203125 C 657.546875 232.265625 656.957031 233.613281 656.101562 233.613281 " fill-opacity="1" fill-rule="nonzero"/><path fill="#99b9ff" d="M 654.800781 269.464844 L 486.984375 269.464844 C 486.023438 269.464844 485.070312 267.484375 484.988281 265.179688 L 484.5 252.914062 C 484.433594 251.0625 484.898438 249.242188 485.675781 249.242188 L 653.496094 249.242188 C 654.453125 249.242188 655.441406 251.816406 655.523438 254.113281 L 655.996094 266.085938 C 656.0625 267.941406 655.578125 269.464844 654.800781 269.464844 " fill-opacity="1" fill-rule="nonzero"/><path fill="#000000" d="M 846.929688 768.175781 C 846.25 768.175781 845.660156 767.671875 845.5625 766.984375 C 845.464844 766.226562 845.992188 765.53125 846.746094 765.429688 C 881.183594 760.761719 913.390625 748.78125 942.46875 729.824219 C 943.109375 729.40625 943.960938 729.585938 944.382812 730.222656 C 944.796875 730.859375 944.613281 731.714844 943.976562 732.132812 C 914.554688 751.320312 881.964844 763.4375 847.117188 768.164062 C 847.050781 768.175781 846.992188 768.175781 846.929688 768.175781 " fill-opacity="1" fill-rule="nonzero"/><path fill="#000000" d="M 759.917969 760.402344 C 755.453125 760.402344 752.902344 760.304688 752.742188 760.296875 C 751.980469 760.269531 751.394531 759.621094 751.425781 758.867188 C 751.457031 758.101562 752.09375 757.511719 752.863281 757.542969 C 753.878906 757.585938 855.480469 761.34375 924.386719 718.667969 C 925.039062 718.269531 925.886719 718.46875 926.289062 719.113281 C 926.6875 719.761719 926.488281 720.609375 925.84375 721.015625 C 866.910156 757.507812 784.488281 760.402344 759.917969 760.402344 " fill-opacity="1" fill-rule="nonzero"/><path fill="#000000" d="M 361.6875 393.953125 C 361.644531 393.953125 361.605469 393.949219 361.5625 393.945312 C 360.804688 393.878906 360.242188 393.207031 360.3125 392.449219 C 364.628906 344.28125 377.992188 298.085938 400.023438 255.148438 C 400.371094 254.46875 401.203125 254.203125 401.882812 254.550781 C 402.558594 254.898438 402.824219 255.726562 402.480469 256.40625 C 380.609375 299.027344 367.347656 344.882812 363.058594 392.695312 C 362.996094 393.414062 362.394531 393.953125 361.6875 393.953125 " fill-opacity="1" fill-rule="nonzero"/><path fill="#000000" d="M 348.300781 367.382812 C 348.222656 367.382812 348.148438 367.378906 348.070312 367.367188 C 347.320312 367.242188 346.8125 366.53125 346.933594 365.78125 C 350.609375 343.523438 356.328125 321.492188 363.9375 300.289062 C 364.195312 299.574219 364.984375 299.203125 365.699219 299.457031 C 366.417969 299.714844 366.789062 300.503906 366.535156 301.21875 C 358.980469 322.265625 353.300781 344.136719 349.65625 366.226562 C 349.546875 366.902344 348.960938 367.382812 348.300781 367.382812 " fill-opacity="1" fill-rule="nonzero"/><path fill="#ffffff" d="M 1017.550781 261.445312 L 960.039062 318.042969 L 1017.550781 261.445312 " fill-opacity="1" fill-rule="nonzero"/><path fill="#000000" d="M 960.046875 319.417969 C 959.6875 319.417969 959.332031 319.285156 959.0625 319.007812 C 958.53125 318.464844 958.535156 317.59375 959.078125 317.0625 L 1016.589844 260.460938 C 1017.128906 259.925781 1018.003906 259.933594 1018.539062 260.476562 C 1019.074219 261.019531 1019.066406 261.890625 1018.527344 262.421875 L 961.015625 319.027344 C 960.742188 319.289062 960.398438 319.417969 960.046875 319.417969 " fill-opacity="1" fill-rule="nonzero"/><path fill="#ffffff" d="M 1017.164062 230.355469 L 986.890625 260.148438 L 1017.164062 230.355469 " fill-opacity="1" fill-rule="nonzero"/><path fill="#000000" d="M 986.898438 261.523438 C 986.542969 261.523438 986.183594 261.386719 985.914062 261.109375 C 985.382812 260.570312 985.386719 259.695312 985.929688 259.160156 L 1016.203125 229.371094 C 1016.746094 228.839844 1017.617188 228.84375 1018.15625 229.386719 C 1018.6875 229.933594 1018.675781 230.804688 1018.132812 231.335938 L 987.867188 261.125 C 987.601562 261.390625 987.25 261.523438 986.898438 261.523438 " fill-opacity="1" fill-rule="nonzero"/><path fill="#000000" d="M 667.203125 739.351562 C 666.859375 739.351562 666.519531 739.222656 666.253906 738.96875 C 665.703125 738.445312 665.683594 737.570312 666.207031 737.019531 L 670.550781 732.480469 C 671.078125 731.929688 671.953125 731.914062 672.5 732.441406 C 673.050781 732.964844 673.066406 733.839844 672.542969 734.390625 L 668.203125 738.925781 C 667.933594 739.207031 667.570312 739.351562 667.203125 739.351562 " fill-opacity="1" fill-rule="nonzero"/><path fill="#000000" d="M 652.011719 755.226562 C 651.667969 755.226562 651.324219 755.097656 651.054688 754.84375 C 650.503906 754.316406 650.488281 753.445312 651.011719 752.894531 L 655.351562 748.355469 C 655.882812 747.8125 656.753906 747.789062 657.304688 748.3125 C 657.859375 748.839844 657.875 749.714844 657.351562 750.265625 L 653.007812 754.800781 C 652.734375 755.082031 652.371094 755.226562 652.011719 755.226562 " fill-opacity="1" fill-rule="nonzero"/><path fill="#000000" d="M 656.269531 739.59375 C 655.917969 739.59375 655.570312 739.460938 655.304688 739.199219 L 650.898438 734.855469 C 650.351562 734.324219 650.347656 733.449219 650.878906 732.90625 C 651.414062 732.363281 652.289062 732.355469 652.832031 732.890625 L 657.238281 737.230469 C 657.785156 737.769531 657.785156 738.640625 657.253906 739.179688 C 656.984375 739.457031 656.628906 739.59375 656.269531 739.59375 " fill-opacity="1" fill-rule="nonzero"/><path fill="#000000" d="M 671.695312 754.789062 C 671.34375 754.789062 670.996094 754.65625 670.726562 754.394531 L 666.320312 750.050781 C 665.777344 749.515625 665.769531 748.644531 666.304688 748.101562 C 666.839844 747.554688 667.710938 747.550781 668.253906 748.085938 L 672.664062 752.425781 C 673.207031 752.960938 673.210938 753.835938 672.675781 754.375 C 672.40625 754.652344 672.050781 754.789062 671.695312 754.789062 " fill-opacity="1" fill-rule="nonzero"/><path fill="#000000" d="M 1064.34375 620.976562 C 1060.761719 622.589844 1059.136719 626.882812 1060.71875 630.542969 C 1061.488281 632.332031 1062.894531 633.699219 1064.675781 634.394531 C 1066.414062 635.070312 1068.316406 635.019531 1070.015625 634.253906 C 1073.59375 632.644531 1075.226562 628.351562 1073.648438 624.683594 C 1072.878906 622.898438 1071.46875 621.53125 1069.683594 620.839844 C 1067.945312 620.164062 1066.046875 620.214844 1064.34375 620.976562 Z M 1067.191406 637.628906 C 1066.007812 637.628906 1064.816406 637.40625 1063.679688 636.964844 C 1061.203125 636.003906 1059.25 634.109375 1058.183594 631.636719 C 1056.015625 626.597656 1058.265625 620.6875 1063.21875 618.464844 C 1065.601562 617.394531 1068.25 617.324219 1070.683594 618.269531 C 1073.164062 619.230469 1075.113281 621.121094 1076.179688 623.59375 C 1078.355469 628.636719 1076.09375 634.542969 1071.152344 636.769531 C 1069.882812 637.339844 1068.535156 637.628906 1067.191406 637.628906 " fill-opacity="1" fill-rule="nonzero"/><path fill="#99b9ff" d="M 976.101562 84.136719 L 696.152344 84.136719 C 689.929688 84.136719 684.882812 89.183594 684.882812 95.40625 L 684.882812 204.332031 C 684.882812 210.550781 689.929688 215.597656 696.152344 215.597656 L 976.101562 215.597656 C 982.328125 215.597656 987.371094 210.550781 987.371094 204.332031 L 987.371094 95.40625 C 987.371094 89.183594 982.328125 84.136719 976.101562 84.136719 " fill-opacity="1" fill-rule="nonzero"/><path fill="#000000" d="M 696.152344 85.519531 C 690.699219 85.519531 686.261719 89.957031 686.261719 95.40625 L 686.261719 204.332031 C 686.261719 209.78125 690.699219 214.21875 696.152344 214.21875 L 976.101562 214.21875 C 981.550781 214.21875 985.996094 209.78125 985.996094 204.332031 L 985.996094 95.40625 C 985.996094 89.957031 981.550781 85.519531 976.101562 85.519531 Z M 976.101562 216.980469 L 696.152344 216.980469 C 689.179688 216.980469 683.503906 211.304688 683.503906 204.332031 L 683.503906 95.40625 C 683.503906 88.433594 689.179688 82.757812 696.152344 82.757812 L 976.101562 82.757812 C 983.074219 82.757812 988.75 88.433594 988.75 95.40625 L 988.75 204.332031 C 988.75 211.304688 983.074219 216.980469 976.101562 216.980469 " fill-opacity="1" fill-rule="nonzero"/><path fill="#ffffff" d="M 978.597656 104 L 694.425781 104 C 693.664062 104 693.046875 103.378906 693.046875 102.617188 C 693.046875 101.855469 693.664062 101.238281 694.425781 101.238281 L 978.597656 101.238281 C 979.359375 101.238281 979.980469 101.855469 979.980469 102.617188 C 979.980469 103.378906 979.359375 104 978.597656 104 " fill-opacity="1" fill-rule="nonzero"/><path fill="#ffffff" d="M 704.96875 92.808594 C 704.96875 94.402344 703.675781 95.695312 702.078125 95.695312 C 700.484375 95.695312 699.191406 94.402344 699.191406 92.808594 C 699.191406 91.210938 700.484375 89.917969 702.078125 89.917969 C 703.675781 89.917969 704.96875 91.210938 704.96875 92.808594 " fill-opacity="1" fill-rule="nonzero"/><path fill="#ffffff" d="M 716.53125 92.808594 C 716.53125 94.402344 715.238281 95.695312 713.640625 95.695312 C 712.046875 95.695312 710.75 94.402344 710.75 92.808594 C 710.75 91.210938 712.046875 89.917969 713.640625 89.917969 C 715.238281 89.917969 716.53125 91.210938 716.53125 92.808594 " fill-opacity="1" fill-rule="nonzero"/><path fill="#ffffff" d="M 728.09375 92.808594 C 728.09375 94.402344 726.800781 95.695312 725.203125 95.695312 C 723.609375 95.695312 722.3125 94.402344 722.3125 92.808594 C 722.3125 91.210938 723.609375 89.917969 725.203125 89.917969 C 726.800781 89.917969 728.09375 91.210938 728.09375 92.808594 " fill-opacity="1" fill-rule="nonzero"/><path fill="#ffffff" d="M 978.597656 93.882812 L 962.046875 93.882812 C 961.28125 93.882812 960.667969 93.265625 960.667969 92.507812 C 960.667969 91.746094 961.28125 91.125 962.046875 91.125 L 978.597656 91.125 C 979.363281 91.125 979.980469 91.746094 979.980469 92.507812 C 979.980469 93.265625 979.363281 93.882812 978.597656 93.882812 " fill-opacity="1" fill-rule="nonzero"/><path fill="#ffffff" d="M 954.683594 93.882812 L 767.996094 93.882812 C 767.234375 93.882812 766.617188 93.265625 766.617188 92.507812 C 766.617188 91.746094 767.234375 91.125 767.996094 91.125 L 954.683594 91.125 C 955.449219 91.125 956.0625 91.746094 956.0625 92.507812 C 956.0625 93.265625 955.449219 93.882812 954.683594 93.882812 " fill-opacity="1" fill-rule="nonzero"/><path fill="#ffffff" d="M 749.605469 93.882812 L 735.808594 93.882812 C 735.050781 93.882812 734.429688 93.265625 734.429688 92.507812 C 734.429688 91.746094 735.050781 91.125 735.808594 91.125 L 749.605469 91.125 C 750.367188 91.125 750.984375 91.746094 750.984375 92.507812 C 750.984375 93.265625 750.367188 93.882812 749.605469 93.882812 " fill-opacity="1" fill-rule="nonzero"/><path fill="#ffffff" d="M 776.273438 193.167969 L 702.699219 193.167969 L 702.699219 119.625 L 776.273438 119.625 L 776.273438 193.167969 " fill-opacity="1" fill-rule="nonzero"/><path fill="#caddff" d="M 805.707031 136.171875 L 790.070312 136.171875 L 790.070312 119.625 L 805.707031 119.625 L 805.707031 136.171875 " fill-opacity="1" fill-rule="nonzero"/><path fill="#ffffff" d="M 971.238281 136.171875 L 816.738281 136.171875 L 816.738281 119.625 L 971.238281 119.625 L 971.238281 136.171875 " fill-opacity="1" fill-rule="nonzero"/><path fill="#caddff" d="M 805.703125 164.667969 L 790.070312 164.667969 L 790.070312 149.039062 L 805.703125 149.039062 L 805.703125 164.667969 " fill-opacity="1" fill-rule="nonzero"/><path fill="#ffffff" d="M 971.242188 164.667969 L 816.738281 164.667969 L 816.738281 148.125 L 971.242188 148.125 L 971.242188 164.667969 " fill-opacity="1" fill-rule="nonzero"/><path fill="#caddff" d="M 805.703125 194.082031 L 790.066406 194.082031 L 790.066406 177.539062 L 805.703125 177.539062 L 805.703125 194.082031 " fill-opacity="1" fill-rule="nonzero"/><path fill="#ffffff" d="M 971.242188 193.167969 L 816.734375 193.167969 L 816.734375 177.539062 L 971.242188 177.539062 L 971.242188 193.167969 " fill-opacity="1" fill-rule="nonzero"/><path fill="#99b9ff" d="M 580.800781 229.238281 C 580.160156 228.3125 580.160156 227.105469 580.800781 226.179688 C 581.683594 224.890625 582.164062 223.507812 582.164062 222.0625 C 582.164062 215.347656 571.757812 209.898438 558.917969 209.898438 C 546.078125 209.898438 535.667969 215.347656 535.667969 222.0625 C 535.667969 223.507812 536.148438 224.890625 537.035156 226.179688 C 537.675781 227.105469 537.675781 228.3125 537.035156 229.238281 C 536.148438 230.527344 535.667969 231.910156 535.667969 233.355469 C 535.667969 236.542969 538.011719 239.441406 541.84375 241.613281 C 541.761719 241.972656 541.710938 242.339844 541.710938 242.714844 C 541.710938 247.683594 549.414062 251.710938 558.917969 251.710938 C 568.417969 251.710938 576.121094 247.683594 576.121094 242.714844 C 576.121094 242.339844 576.074219 241.972656 575.988281 241.613281 C 579.824219 239.441406 582.164062 236.542969 582.164062 233.355469 C 582.164062 231.910156 581.683594 230.527344 580.800781 229.238281 " fill-opacity="1" fill-rule="nonzero"/><path fill="#000000" d="M 558.917969 211.28125 C 547.0625 211.28125 537.046875 216.214844 537.046875 222.0625 C 537.046875 223.191406 537.425781 224.3125 538.171875 225.398438 C 539.136719 226.800781 539.136719 228.617188 538.171875 230.019531 C 537.425781 231.105469 537.046875 232.226562 537.046875 233.355469 C 537.046875 235.910156 538.992188 238.410156 542.523438 240.410156 L 543.421875 240.917969 L 543.1875 241.921875 C 543.125 242.203125 543.09375 242.460938 543.09375 242.710938 C 543.09375 246.84375 550.339844 250.335938 558.917969 250.335938 C 567.496094 250.335938 574.742188 246.84375 574.742188 242.710938 C 574.742188 242.460938 574.710938 242.203125 574.644531 241.925781 L 574.410156 240.917969 L 575.308594 240.410156 C 578.839844 238.410156 580.785156 235.910156 580.785156 233.355469 C 580.785156 232.226562 580.410156 231.105469 579.664062 230.019531 C 578.695312 228.617188 578.695312 226.800781 579.664062 225.398438 C 580.410156 224.3125 580.785156 223.191406 580.785156 222.0625 C 580.785156 216.214844 570.769531 211.28125 558.917969 211.28125 Z M 558.917969 253.089844 C 548.496094 253.089844 540.332031 248.53125 540.332031 242.710938 C 540.332031 242.585938 540.335938 242.453125 540.34375 242.324219 C 536.429688 239.875 534.289062 236.714844 534.289062 233.355469 C 534.289062 231.660156 534.828125 230.011719 535.898438 228.457031 C 536.214844 227.992188 536.214844 227.421875 535.898438 226.957031 C 534.828125 225.40625 534.289062 223.757812 534.289062 222.0625 C 534.289062 214.46875 545.105469 208.519531 558.917969 208.519531 C 572.726562 208.519531 583.542969 214.46875 583.542969 222.0625 C 583.542969 223.757812 583.003906 225.40625 581.9375 226.957031 C 581.617188 227.421875 581.617188 227.992188 581.9375 228.457031 C 583.003906 230.011719 583.542969 231.660156 583.542969 233.355469 C 583.542969 236.714844 581.402344 239.875 577.488281 242.320312 C 577.496094 242.453125 577.5 242.585938 577.5 242.710938 C 577.5 248.53125 569.339844 253.089844 558.917969 253.089844 " fill-opacity="1" fill-rule="nonzero"/><path fill="#ffffff" d="M 622.027344 128.816406 C 622.027344 94.371094 593.34375 64.992188 558.886719 64.992188 C 524.496094 64.992188 496.128906 93.578125 495.902344 127.957031 C 495.785156 145.460938 504.230469 161.742188 515.75 173.132812 C 524.054688 181.355469 530.113281 191.570312 533.054688 202.878906 L 533.195312 203.429688 C 536.050781 214.40625 545.964844 222.0625 557.308594 222.0625 L 561.960938 222.0625 C 573.304688 222.0625 583.21875 214.40625 586.074219 203.429688 L 586.160156 203.097656 C 589.078125 191.863281 594.890625 181.550781 603.199219 173.453125 C 614.8125 162.128906 622.027344 146.316406 622.027344 128.816406 " fill-opacity="1" fill-rule="nonzero"/><path fill="#000000" d="M 558.886719 66.371094 C 525.140625 66.371094 497.507812 94 497.28125 127.960938 C 497.175781 143.726562 504.261719 159.832031 516.71875 172.15625 C 525.324219 180.671875 531.4375 191.175781 534.390625 202.535156 L 534.53125 203.085938 C 537.226562 213.445312 546.59375 220.683594 557.308594 220.683594 L 561.960938 220.683594 C 572.675781 220.683594 582.042969 213.445312 584.738281 203.078125 L 584.824219 202.75 C 587.855469 191.09375 593.878906 180.621094 602.234375 172.46875 C 614.105469 160.886719 620.644531 145.386719 620.644531 128.816406 C 620.644531 94.96875 592.363281 66.371094 558.886719 66.371094 Z M 561.960938 223.441406 L 557.308594 223.441406 C 545.335938 223.441406 534.871094 215.355469 531.859375 203.773438 L 531.71875 203.226562 C 528.890625 192.347656 523.03125 182.28125 514.777344 174.121094 C 501.796875 161.273438 494.410156 144.441406 494.523438 127.945312 C 494.632812 110.933594 501.414062 94.832031 513.605469 82.613281 C 525.828125 70.359375 541.910156 63.613281 558.886719 63.613281 C 593.859375 63.613281 623.398438 93.472656 623.398438 128.816406 C 623.398438 146.136719 616.570312 162.339844 604.164062 174.441406 C 596.164062 182.238281 590.398438 192.269531 587.492188 203.441406 L 587.410156 203.773438 C 584.394531 215.355469 573.933594 223.441406 561.960938 223.441406 " fill-opacity="1" fill-rule="nonzero"/><path fill="#000000" d="M 568.757812 117.964844 C 567.917969 118.742188 567.152344 119.6875 566.503906 120.832031 C 562.078125 128.640625 563.503906 132.789062 564.75 134.566406 C 566.035156 136.410156 568.261719 137.359375 570.425781 137 C 572.132812 136.714844 573.371094 135.640625 573.824219 134.0625 C 575.441406 128.410156 572.726562 121.855469 568.757812 117.964844 Z M 550.105469 118.515625 C 548.171875 120.746094 546.605469 123.777344 545.464844 127.523438 C 544.191406 131.703125 544.589844 135.226562 546.554688 137.195312 C 547.820312 138.464844 549.585938 138.917969 551.28125 138.410156 C 553.375 137.777344 554.890625 135.835938 555.449219 133.082031 C 556.28125 128.949219 554.007812 120.890625 550.105469 118.515625 Z M 562.425781 214.519531 C 562.425781 214.519531 562.421875 214.519531 562.421875 214.519531 C 561.660156 214.515625 561.042969 213.894531 561.046875 213.132812 C 561.183594 179.527344 580.804688 141.613281 584.734375 134.351562 C 587.058594 130.066406 587.945312 126.570312 587.449219 123.65625 C 586.714844 119.339844 584.515625 116.566406 580.902344 115.40625 C 578.355469 114.589844 574.421875 114.5 571.027344 116.335938 C 575.421875 120.863281 578.382812 128.15625 576.476562 134.820312 C 575.730469 137.425781 573.636719 139.257812 570.878906 139.714844 C 567.675781 140.253906 564.382812 138.855469 562.488281 136.148438 C 560.871094 133.839844 558.929688 128.601562 564.101562 119.46875 C 564.832031 118.1875 565.675781 117.105469 566.601562 116.199219 C 566.515625 116.140625 566.425781 116.085938 566.339844 116.03125 C 563.757812 114.402344 559.503906 113.210938 555.320312 114.773438 C 554.191406 115.191406 553.128906 115.792969 552.136719 116.570312 C 556.816406 120.019531 559.144531 128.710938 558.152344 133.625 C 557.390625 137.410156 555.175781 140.117188 552.078125 141.050781 C 549.429688 141.84375 546.566406 141.113281 544.601562 139.148438 C 541.894531 136.433594 541.246094 131.902344 542.824219 126.726562 C 544.054688 122.679688 545.65625 119.699219 547.371094 117.5 C 540.503906 115.703125 535.730469 118.992188 534.421875 122.207031 C 532.875 126.03125 533.4375 130.585938 535.898438 134.097656 C 541.65625 142.328125 555.125 166.347656 555.785156 211.589844 C 555.796875 212.355469 555.1875 212.976562 554.425781 212.992188 C 554.417969 212.992188 554.410156 212.992188 554.40625 212.992188 C 553.652344 212.992188 553.039062 212.390625 553.027344 211.632812 C 552.378906 167.148438 539.25 143.699219 533.640625 135.679688 C 530.605469 131.34375 529.941406 125.921875 531.867188 121.175781 C 533.980469 115.957031 541.0625 112.4375 549.441406 115.242188 C 551.148438 113.675781 552.863281 112.742188 554.355469 112.191406 C 559.484375 110.28125 564.671875 111.714844 567.8125 113.699219 C 568.164062 113.921875 568.511719 114.160156 568.855469 114.414062 C 573.183594 111.667969 578.425781 111.714844 581.746094 112.78125 C 586.351562 114.261719 589.261719 117.859375 590.167969 123.191406 C 590.78125 126.785156 589.824219 130.75 587.164062 135.664062 C 583.285156 142.824219 563.9375 180.203125 563.804688 213.148438 C 563.800781 213.90625 563.183594 214.519531 562.425781 214.519531 " fill-opacity="1" fill-rule="nonzero"/><path fill="#000000" d="M 587.824219 169.335938 C 587.363281 169.335938 586.914062 169.109375 586.652344 168.691406 C 586.246094 168.046875 586.441406 167.195312 587.085938 166.789062 C 598.199219 159.804688 606.203125 148.457031 609.035156 135.660156 C 609.203125 134.914062 609.9375 134.445312 610.679688 134.609375 C 611.425781 134.773438 611.894531 135.507812 611.730469 136.253906 C 608.738281 149.765625 600.289062 161.746094 588.554688 169.125 C 588.328125 169.265625 588.074219 169.335938 587.824219 169.335938 " fill-opacity="1" fill-rule="nonzero"/><path fill="#000000" d="M 519.917969 162.113281 C 519.535156 162.113281 519.15625 161.957031 518.886719 161.648438 C 510.402344 152.109375 505.730469 139.824219 505.730469 127.050781 C 505.730469 107.128906 516.824219 89.242188 534.679688 80.382812 C 535.363281 80.042969 536.191406 80.320312 536.527344 81.003906 C 536.871094 81.683594 536.589844 82.511719 535.90625 82.851562 C 518.996094 91.246094 508.492188 108.183594 508.492188 127.050781 C 508.492188 139.152344 512.914062 150.785156 520.949219 159.8125 C 521.453125 160.382812 521.402344 161.257812 520.832031 161.761719 C 520.570312 162 520.242188 162.113281 519.917969 162.113281 " fill-opacity="1" fill-rule="nonzero"/><path fill="#ffffff" d="M 562.890625 229.941406 C 562.234375 229.941406 561.648438 229.464844 561.535156 228.792969 C 561.402344 228.042969 561.910156 227.335938 562.660156 227.207031 C 564.765625 226.839844 566.816406 226.382812 568.75 225.835938 C 569.480469 225.628906 570.246094 226.058594 570.453125 226.789062 C 570.660156 227.519531 570.234375 228.285156 569.5 228.488281 C 567.472656 229.0625 565.328125 229.542969 563.125 229.921875 C 563.046875 229.9375 562.96875 229.941406 562.890625 229.941406 " fill-opacity="1" fill-rule="nonzero"/><path fill="#ffffff" d="M 553.089844 241.894531 C 552.332031 241.894531 551.71875 241.285156 551.710938 240.527344 C 551.703125 239.765625 552.316406 239.140625 553.078125 239.136719 C 557.84375 239.09375 564.832031 238.429688 571.070312 235.519531 C 571.761719 235.191406 572.582031 235.492188 572.90625 236.179688 C 573.226562 236.875 572.929688 237.691406 572.238281 238.011719 C 565.550781 241.136719 558.140625 241.847656 553.101562 241.894531 C 553.097656 241.894531 553.09375 241.894531 553.089844 241.894531 " fill-opacity="1" fill-rule="nonzero"/><path fill="#000000" d="M 559.230469 51.367188 C 559.222656 51.367188 559.210938 51.367188 559.203125 51.367188 C 558.441406 51.351562 557.835938 50.71875 557.851562 49.960938 L 558.425781 22.414062 C 558.441406 21.660156 559.054688 21.0625 559.804688 21.0625 C 559.8125 21.0625 559.824219 21.0625 559.832031 21.0625 C 560.59375 21.078125 561.199219 21.710938 561.183594 22.46875 L 560.609375 50.015625 C 560.59375 50.769531 559.980469 51.367188 559.230469 51.367188 " fill-opacity="1" fill-rule="nonzero"/><path fill="#000000" d="M 479.363281 107.476562 L 461.765625 107.46875 C 461.003906 107.46875 460.386719 106.851562 460.386719 106.085938 C 460.386719 105.328125 461.003906 104.710938 461.765625 104.710938 C 461.765625 104.710938 461.765625 104.710938 461.769531 104.710938 L 479.363281 104.71875 C 480.125 104.71875 480.742188 105.339844 480.742188 106.101562 C 480.742188 106.863281 480.125 107.476562 479.363281 107.476562 " fill-opacity="1" fill-rule="nonzero"/><path fill="#000000" d="M 495.597656 70.703125 C 495.375 70.703125 495.148438 70.648438 494.941406 70.53125 L 475.097656 59.785156 C 474.429688 59.421875 474.179688 58.589844 474.542969 57.917969 C 474.90625 57.25 475.742188 56.996094 476.410156 57.359375 L 496.257812 68.109375 C 496.925781 68.476562 497.175781 69.3125 496.8125 69.980469 C 496.5625 70.445312 496.089844 70.703125 495.597656 70.703125 " fill-opacity="1" fill-rule="nonzero"/><path fill="#000000" d="M 638.472656 107.476562 C 637.710938 107.476562 637.09375 106.863281 637.09375 106.101562 C 637.09375 105.339844 637.707031 104.71875 638.472656 104.71875 L 656.066406 104.710938 C 656.066406 104.710938 656.066406 104.710938 656.070312 104.710938 C 656.828125 104.710938 657.445312 105.328125 657.445312 106.085938 C 657.449219 106.851562 656.832031 107.46875 656.070312 107.46875 L 638.476562 107.476562 C 638.472656 107.476562 638.472656 107.476562 638.472656 107.476562 " fill-opacity="1" fill-rule="nonzero"/><path fill="#000000" d="M 622.242188 70.703125 C 621.75 70.703125 621.273438 70.445312 621.023438 69.980469 C 620.660156 69.3125 620.910156 68.476562 621.582031 68.109375 L 641.421875 57.359375 C 642.09375 56.996094 642.929688 57.25 643.292969 57.917969 C 643.65625 58.589844 643.40625 59.421875 642.734375 59.785156 L 622.894531 70.53125 C 622.683594 70.648438 622.460938 70.703125 622.242188 70.703125 " fill-opacity="1" fill-rule="nonzero"/><path fill="#99b9ff" d="M 375.050781 690.253906 C 370.992188 704.117188 364.632812 723.300781 371.675781 732.511719 C 384.472656 749.25 395.089844 746.5625 410.882812 740.804688 C 442.472656 729.292969 492.882812 711.109375 507.601562 721.21875 L 508.253906 690.253906 L 375.050781 690.253906 " fill-opacity="1" fill-rule="nonzero"/><path fill="#000000" d="M 605.785156 740.863281 C 600.324219 700.28125 596.265625 674.296875 596.265625 674.296875 L 412.871094 642.457031 L 394.566406 694.363281 C 389.085938 710.085938 381.582031 733.328125 374.585938 761.925781 C 374.039062 764.164062 373.414062 766.761719 372.765625 769.542969 C 371.792969 773.722656 374.609375 777.863281 378.863281 778.46875 C 450.039062 788.636719 529.535156 780.332031 601.847656 747.914062 C 604.574219 746.695312 606.183594 743.828125 605.785156 740.863281 " fill-opacity="1" fill-rule="nonzero"/><path fill="#5479f7" d="M 556.203125 393.308594 C 582.4375 393.1875 606.410156 408.015625 617.886719 431.441406 C 631.183594 458.585938 649.960938 529.613281 650.6875 560.632812 C 651.96875 614.855469 604.453125 617.910156 603.042969 617.988281 C 603.027344 617.988281 603.011719 618.003906 603.015625 618.023438 C 603.164062 619.589844 608.714844 678.503906 609.152344 688.964844 C 609.957031 708.09375 574.460938 737.941406 533.699219 723.234375 C 493.136719 708.605469 382.328125 679.460938 371.074219 704.277344 C 371.058594 704.316406 371.007812 704.296875 371.019531 704.261719 L 417.503906 531.871094 C 417.511719 531.851562 417.496094 531.828125 417.472656 531.835938 L 379.3125 533.675781 C 379.308594 533.675781 379.300781 533.675781 379.296875 533.671875 L 348.21875 515.707031 C 348.207031 515.699219 348.203125 515.683594 348.203125 515.671875 L 356.074219 480.832031 C 371.023438 421.296875 411.019531 393.984375 462.636719 393.742188 L 556.203125 393.308594 " fill-opacity="1" fill-rule="nonzero"/><path fill="#ffffff" d="M 433.832031 526.296875 C 426.699219 524.980469 428.648438 516.71875 403.589844 515.222656 C 331.277344 510.914062 366.320312 474.210938 407.75 481.203125 C 421.480469 483.519531 426.878906 492.402344 432.042969 494.65625 C 475.386719 513.558594 448.050781 528.925781 433.832031 526.296875 " fill-opacity="1" fill-rule="nonzero"/><path fill="#000000" d="M 434.082031 524.941406 C 441.261719 526.273438 452.007812 522.625 453.84375 516.632812 C 455.726562 510.484375 447.582031 502.933594 431.492188 495.917969 C 429.648438 495.113281 427.875 493.628906 425.824219 491.914062 C 421.652344 488.421875 416.457031 484.070312 407.519531 482.5625 C 388.582031 479.367188 371.128906 485.449219 365.195312 493.175781 C 363.125 495.867188 362.652344 498.484375 363.777344 500.953125 C 365.261719 504.203125 372.117188 511.96875 403.671875 513.847656 C 420.953125 514.875 425.8125 519.101562 429.359375 522.1875 C 430.953125 523.578125 432.105469 524.574219 434.082031 524.941406 Z M 437.3125 527.980469 C 436.019531 527.980469 434.765625 527.871094 433.582031 527.65625 C 430.863281 527.152344 429.253906 525.75 427.550781 524.269531 C 424.300781 521.441406 419.851562 517.570312 403.507812 516.601562 C 379.894531 515.191406 364.894531 510.042969 361.269531 502.101562 C 359.726562 498.726562 360.34375 494.960938 363.003906 491.496094 C 369.4375 483.125 388.019531 476.476562 407.976562 479.84375 C 417.65625 481.480469 423.402344 486.289062 427.59375 489.796875 C 429.484375 491.378906 431.113281 492.742188 432.59375 493.386719 C 455.382812 503.332031 458.164062 511.957031 456.480469 517.441406 C 454.484375 523.957031 445.25 527.980469 437.3125 527.980469 " fill-opacity="1" fill-rule="nonzero"/><path fill="#ffffff" d="M 524.871094 403.457031 C 527.28125 401.394531 526.007812 397.449219 522.847656 397.070312 L 517.945312 396.484375 C 512.675781 395.847656 508.285156 392.34375 506.570312 387.5 L 498.492188 327.875 L 481.929688 333.792969 L 460.007812 322.960938 L 461.96875 386.675781 C 461.808594 392.230469 458.183594 397.136719 452.828125 399.054688 L 446.421875 401.34375 C 443.050781 402.546875 442.890625 407.117188 446.160156 408.542969 C 459.203125 414.226562 512.230469 414.269531 524.871094 403.457031 " fill-opacity="1" fill-rule="nonzero"/><path fill="#000000" d="M 461.457031 325.214844 L 463.347656 386.632812 C 463.171875 392.875 459.222656 398.230469 453.292969 400.347656 L 446.886719 402.640625 C 445.851562 403.007812 445.214844 403.859375 445.179688 404.910156 C 445.144531 405.957031 445.71875 406.84375 446.710938 407.273438 C 458.753906 412.527344 511.734375 412.875 523.972656 402.410156 C 524.65625 401.824219 524.90625 400.957031 524.644531 400.085938 C 524.429688 399.378906 523.800781 398.574219 522.683594 398.441406 L 517.78125 397.847656 C 511.972656 397.15625 507.179688 393.363281 505.269531 387.957031 C 505.238281 387.871094 505.214844 387.78125 505.203125 387.683594 L 497.355469 329.746094 L 482.394531 335.09375 C 482.039062 335.21875 481.652344 335.195312 481.316406 335.035156 Z M 478.441406 413.753906 C 464.292969 413.753906 451.234375 412.257812 445.609375 409.804688 C 443.570312 408.917969 442.347656 407.003906 442.421875 404.820312 C 442.496094 402.628906 443.851562 400.796875 445.957031 400.046875 L 452.363281 397.753906 C 457.21875 396.019531 460.445312 391.65625 460.589844 386.636719 L 458.628906 323.003906 C 458.613281 322.519531 458.855469 322.0625 459.261719 321.800781 C 459.671875 321.539062 460.183594 321.507812 460.621094 321.722656 L 482.015625 332.300781 L 498.027344 326.574219 C 498.421875 326.4375 498.855469 326.480469 499.210938 326.695312 C 499.566406 326.910156 499.804688 327.28125 499.859375 327.691406 L 507.917969 387.171875 C 509.507812 391.507812 513.398438 394.546875 518.109375 395.113281 L 523.011719 395.703125 C 525.054688 395.949219 526.6875 397.320312 527.285156 399.285156 C 527.867188 401.207031 527.285156 403.207031 525.769531 404.503906 C 518.058594 411.09375 497.285156 413.753906 478.441406 413.753906 " fill-opacity="1" fill-rule="nonzero"/><path fill="#ffffff" d="M 505.839844 280.460938 C 534.070312 290.851562 529.214844 309.113281 529.214844 309.113281 C 528.863281 314.136719 528.660156 323.332031 529.597656 326.664062 C 530.367188 329.417969 534.878906 334.589844 535.09375 336.121094 C 535.3125 337.648438 532.867188 340.78125 527.980469 341.894531 C 527.980469 341.894531 526.125 366.300781 519.726562 370.296875 C 513.324219 374.296875 488.683594 366.621094 488.683594 366.621094 L 484.535156 364.960938 C 471.183594 359.609375 463.019531 348.480469 459.132812 334.699219 C 459.132812 334.699219 441.15625 256.65625 505.839844 280.460938 " fill-opacity="1" fill-rule="nonzero"/><path fill="#000000" d="M 489.144531 365.320312 C 495.875 367.410156 514.199219 372.125 518.996094 369.125 C 523.226562 366.484375 525.910156 350.957031 526.605469 341.792969 C 526.648438 341.191406 527.082031 340.6875 527.675781 340.554688 C 531.984375 339.570312 533.777344 336.96875 533.726562 336.308594 C 533.617188 335.839844 532.503906 334.214844 531.6875 333.023438 C 530.242188 330.914062 528.746094 328.734375 528.265625 327.035156 C 527.152344 323.070312 527.578125 312.683594 527.839844 309.015625 C 527.84375 308.929688 527.859375 308.84375 527.882812 308.757812 C 528.058594 308.066406 531.976562 291.554688 505.363281 281.757812 C 488.453125 275.53125 475.910156 275.875 468.082031 282.765625 C 452.058594 296.875 460.394531 334.019531 460.476562 334.390625 C 464.519531 348.707031 473.019531 358.859375 485.046875 363.679688 Z M 513.691406 372.8125 C 504.273438 372.8125 490.261719 368.558594 488.273438 367.9375 C 488.238281 367.929688 488.203125 367.917969 488.167969 367.90625 L 484.023438 366.242188 C 471.171875 361.085938 462.105469 350.3125 457.804688 335.074219 C 457.421875 333.421875 449.015625 295.878906 466.257812 280.695312 C 474.902344 273.082031 488.382812 272.570312 506.316406 279.171875 C 533.992188 289.359375 530.980469 307.429688 530.585938 309.308594 C 530.21875 314.59375 530.082031 323.296875 530.925781 326.292969 C 531.277344 327.550781 532.765625 329.722656 533.960938 331.464844 C 535.464844 333.65625 536.320312 334.945312 536.460938 335.929688 C 536.792969 338.265625 533.949219 341.582031 529.273438 342.984375 C 528.824219 348.070312 526.707031 367.558594 520.457031 371.464844 C 518.90625 372.433594 516.503906 372.8125 513.691406 372.8125 " fill-opacity="1" fill-rule="nonzero"/><path fill="#000000" d="M 496.546875 267.25 C 503.964844 269.0625 511.222656 273.691406 515.054688 274.097656 C 521.238281 274.761719 525.703125 266.828125 533.515625 269.707031 C 540.382812 272.238281 544.242188 278.082031 545.21875 284.664062 C 545.386719 285.761719 545.429688 286.925781 545.320312 288.167969 C 543.871094 304.820312 533.445312 308.359375 529.214844 309.113281 C 529.214844 309.113281 504.703125 306.84375 499.921875 308.003906 C 495.453125 309.085938 488.539062 316.046875 486.457031 325.933594 C 486.1875 327.207031 485.074219 328.140625 483.765625 328.238281 C 482.234375 328.355469 480.847656 327.300781 480.589844 325.796875 C 479.769531 321.046875 477.53125 311.554688 472.707031 311.273438 C 467.082031 310.949219 459.917969 322.0625 467.273438 329.027344 C 469.539062 331.175781 468.785156 335.078125 465.886719 336.246094 C 463.476562 337.210938 460.460938 337.269531 457.195312 334.628906 C 457.195312 334.628906 442.6875 309.203125 449.609375 287.742188 C 456.53125 266.277344 486.671875 264.835938 496.546875 267.25 " fill-opacity="1" fill-rule="nonzero"/><path fill="#000000" d="M 535.960938 335.667969 C 535.589844 335.667969 535.21875 335.523438 534.949219 335.230469 C 534.429688 334.671875 534.460938 333.800781 535.019531 333.28125 C 536.71875 331.707031 537.945312 328.167969 538.148438 324.257812 C 538.292969 321.441406 537.90625 318.792969 537.0625 316.792969 C 536.371094 315.167969 535.433594 314.164062 534.550781 314.121094 C 533.136719 314.066406 531.105469 316.578125 530.273438 320.945312 C 530.128906 321.695312 529.410156 322.1875 528.660156 322.046875 C 527.910156 321.898438 527.421875 321.179688 527.5625 320.429688 C 528.628906 314.84375 531.503906 311.191406 534.691406 311.367188 C 536.714844 311.46875 538.457031 313.015625 539.601562 315.71875 C 540.609375 318.089844 541.070312 321.175781 540.902344 324.398438 C 540.660156 329.058594 539.125 333.238281 536.898438 335.304688 C 536.632812 335.550781 536.296875 335.667969 535.960938 335.667969 " fill-opacity="1" fill-rule="nonzero"/><path fill="#000000" d="M 509.777344 323.785156 L 509.789062 323.785156 Z M 517.449219 313.773438 C 514.304688 313.773438 511.441406 318.324219 511.15625 323.851562 C 511.007812 326.742188 511.554688 329.46875 512.691406 331.539062 C 513.71875 333.390625 515.082031 334.457031 516.539062 334.53125 C 519.761719 334.683594 522.703125 330.082031 522.996094 324.457031 C 523.144531 321.570312 522.597656 318.84375 521.457031 316.773438 C 520.433594 314.917969 519.066406 313.851562 517.613281 313.777344 C 517.558594 313.773438 517.503906 313.773438 517.449219 313.773438 Z M 516.710938 337.296875 C 516.605469 337.296875 516.5 337.289062 516.394531 337.289062 C 513.953125 337.164062 511.78125 335.589844 510.277344 332.867188 C 508.890625 330.355469 508.226562 327.105469 508.402344 323.710938 C 508.78125 316.34375 512.90625 310.785156 517.753906 311.023438 C 520.199219 311.148438 522.371094 312.714844 523.875 315.441406 C 525.261719 317.953125 525.925781 321.207031 525.75 324.597656 C 525.378906 331.804688 521.433594 337.296875 516.710938 337.296875 " fill-opacity="1" fill-rule="nonzero"/><path fill="#000000" d="M 510.652344 319.988281 C 510.609375 319.988281 510.566406 319.984375 510.527344 319.984375 L 483.589844 317.570312 C 482.832031 317.503906 482.273438 316.832031 482.339844 316.074219 C 482.410156 315.316406 483.078125 314.757812 483.835938 314.824219 L 510.773438 317.230469 C 511.53125 317.304688 512.089844 317.96875 512.023438 318.726562 C 511.957031 319.445312 511.355469 319.988281 510.652344 319.988281 " fill-opacity="1" fill-rule="nonzero"/><path fill="#ffffff" d="M 467.710938 436.34375 C 467.710938 436.34375 478.199219 452.78125 487.648438 449.878906 C 492.613281 448.355469 497.453125 432.136719 499.433594 431.558594 C 505.765625 429.714844 517.824219 426.707031 525.230469 413.488281 C 532.148438 401.132812 530.640625 394.539062 528.859375 391.507812 C 528.035156 390.109375 528.050781 388.378906 528.960938 387.03125 C 530.28125 385.082031 531.5625 382.132812 530.230469 379.089844 C 529.761719 378.023438 529.804688 376.800781 530.261719 375.734375 C 532.023438 371.640625 535.277344 362.230469 528.949219 360.375 C 527.238281 359.875 525.382812 360.511719 524.339844 361.953125 C 522.332031 364.722656 518.140625 369.941406 512.957031 373.238281 C 505.628906 377.894531 501.238281 381.082031 497.554688 383.179688 C 494.402344 384.976562 492.738281 369.242188 485.160156 363.328125 C 478.433594 358.082031 476.140625 360.738281 475.46875 363.203125 C 474.796875 365.671875 478.960938 366.648438 481.335938 378.375 C 484.117188 392.097656 481.207031 403.648438 480.367188 409.828125 C 479.378906 417.074219 467.710938 436.34375 467.710938 436.34375 " fill-opacity="1" fill-rule="nonzero"/><path fill="#000000" d="M 469.34375 436.304688 C 472.515625 440.984375 480.679688 450.578125 487.242188 448.5625 C 489.691406 447.808594 492.734375 441.269531 494.746094 436.945312 C 496.832031 432.460938 497.730469 430.621094 499.046875 430.238281 L 499.847656 430.003906 C 506.335938 428.132812 517.199219 425.007812 524.027344 412.8125 C 530.71875 400.871094 529.179688 394.773438 527.667969 392.203125 C 526.554688 390.3125 526.613281 388.035156 527.816406 386.261719 C 528.941406 384.605469 530.050781 382.113281 528.964844 379.644531 C 528.359375 378.265625 528.371094 376.640625 528.996094 375.1875 C 531.210938 370.035156 531.867188 365.792969 530.804688 363.53125 C 530.375 362.617188 529.640625 362.015625 528.5625 361.699219 C 527.410156 361.363281 526.164062 361.785156 525.457031 362.761719 C 523.367188 365.644531 519.0625 370.988281 513.699219 374.402344 C 510.511719 376.425781 507.914062 378.152344 505.617188 379.675781 C 502.675781 381.628906 500.355469 383.171875 498.242188 384.378906 C 497.625 384.722656 496.941406 384.792969 496.304688 384.570312 C 494.601562 383.964844 493.621094 381.457031 492.128906 377.664062 C 490.429688 373.320312 488.097656 367.371094 484.3125 364.417969 C 480.640625 361.554688 478.867188 361.53125 478.144531 361.773438 C 477.367188 362.03125 476.984375 362.890625 476.800781 363.566406 C 476.710938 363.894531 476.894531 364.242188 477.683594 365.429688 C 478.996094 367.421875 481.199219 370.75 482.6875 378.101562 C 485.066406 389.859375 483.382812 399.96875 482.265625 406.65625 C 482.054688 407.90625 481.867188 409.03125 481.734375 410.015625 C 480.816406 416.71875 471.539062 432.613281 469.34375 436.304688 Z M 485.347656 451.605469 C 475.929688 451.605469 466.960938 437.722656 466.550781 437.078125 C 466.269531 436.636719 466.261719 436.074219 466.535156 435.625 C 466.648438 435.4375 478.058594 416.523438 479 409.648438 C 479.136719 408.632812 479.328125 407.480469 479.542969 406.199219 C 480.625 399.714844 482.265625 389.910156 479.984375 378.648438 C 478.601562 371.824219 476.585938 368.777344 475.378906 366.949219 C 474.484375 365.59375 473.707031 364.421875 474.136719 362.839844 C 474.648438 360.972656 475.761719 359.664062 477.273438 359.15625 C 479.527344 358.40625 482.382812 359.417969 486.007812 362.246094 C 490.390625 365.660156 492.878906 372.015625 494.699219 376.65625 C 495.453125 378.578125 496.460938 381.152344 497.105469 381.851562 C 499.082031 380.707031 501.304688 379.230469 504.09375 377.378906 C 506.394531 375.847656 509.007812 374.113281 512.214844 372.070312 C 517.195312 368.90625 521.25 363.867188 523.222656 361.144531 C 524.613281 359.230469 527.066406 358.386719 529.339844 359.054688 C 531.191406 359.597656 532.523438 360.707031 533.300781 362.359375 C 535.121094 366.226562 533.34375 372.0625 531.53125 376.277344 C 531.207031 377.03125 531.191406 377.855469 531.492188 378.539062 C 532.75 381.402344 532.269531 384.609375 530.101562 387.808594 C 529.5 388.691406 529.480469 389.84375 530.046875 390.808594 C 532.257812 394.570312 533.429688 401.675781 526.433594 414.160156 C 519.054688 427.34375 507.054688 430.800781 500.613281 432.65625 L 499.984375 432.832031 C 499.421875 433.429688 498.21875 436.015625 497.246094 438.109375 C 494.089844 444.894531 491.410156 450.167969 488.050781 451.199219 C 487.152344 451.472656 486.246094 451.605469 485.347656 451.605469 " fill-opacity="1" fill-rule="nonzero"/><path fill="#5479f7" d="M 502.269531 443.617188 L 470.507812 423.386719 C 470.507812 423.386719 427.574219 492.78125 395.054688 516.339844 C 379.226562 527.804688 348.515625 514.320312 348.515625 514.320312 C 348.515625 514.320312 319.03125 627.589844 375.941406 643.78125 C 470.742188 670.75 502.269531 443.617188 502.269531 443.617188 " fill-opacity="1" fill-rule="nonzero"/><path fill="#caddff" d="M 598.046875 620.71875 C 562.234375 620.71875 510.710938 591.980469 475.957031 566.101562 C 475.34375 565.648438 475.21875 564.785156 475.675781 564.171875 C 476.128906 563.558594 476.996094 563.433594 477.605469 563.890625 C 514.101562 591.0625 569.144531 621.449219 604.191406 617.640625 C 604.945312 617.554688 605.628906 618.105469 605.710938 618.859375 C 605.792969 619.617188 605.246094 620.300781 604.488281 620.378906 C 602.40625 620.605469 600.253906 620.71875 598.046875 620.71875 " fill-opacity="1" fill-rule="nonzero"/><path fill="#caddff" d="M 549.722656 533.453125 C 529.867188 533.453125 493.289062 516.339844 491.585938 515.535156 C 490.894531 515.207031 490.601562 514.386719 490.925781 513.699219 C 491.25 513.011719 492.074219 512.71875 492.761719 513.039062 C 493.210938 513.25 538.0625 534.25 554.617188 530.199219 C 582.4375 523.382812 575.824219 487.742188 575.753906 487.382812 C 575.609375 486.632812 576.097656 485.910156 576.847656 485.761719 C 577.597656 485.617188 578.316406 486.109375 578.464844 486.855469 C 578.539062 487.238281 585.621094 525.445312 555.273438 532.875 C 553.636719 533.273438 551.769531 533.453125 549.722656 533.453125 " fill-opacity="1" fill-rule="nonzero"/><path fill="#caddff" d="M 392.273438 521.011719 C 391.851562 521.011719 391.4375 520.824219 391.167969 520.460938 C 390.710938 519.851562 390.835938 518.984375 391.445312 518.53125 C 425.65625 492.96875 468.058594 422.820312 468.484375 422.117188 C 468.875 421.464844 469.722656 421.253906 470.378906 421.644531 C 471.03125 422.039062 471.242188 422.886719 470.847656 423.539062 C 470.421875 424.25 427.734375 494.859375 393.097656 520.738281 C 392.851562 520.921875 392.558594 521.011719 392.273438 521.011719 " fill-opacity="1" fill-rule="nonzero"/><path fill="#caddff" d="M 389.523438 648.488281 C 388.296875 648.488281 387.070312 648.433594 385.835938 648.328125 C 385.078125 648.265625 384.515625 647.59375 384.582031 646.835938 C 384.648438 646.078125 385.316406 645.523438 386.074219 645.582031 C 425.101562 648.960938 454.195312 594.003906 471.753906 547.328125 C 489.535156 500.058594 499.332031 451.488281 500.738281 444.277344 L 487.683594 435.964844 C 487.039062 435.558594 486.851562 434.703125 487.261719 434.0625 C 487.667969 433.421875 488.519531 433.230469 489.164062 433.636719 L 503.011719 442.453125 C 503.488281 442.753906 503.730469 443.316406 503.625 443.867188 C 503.527344 444.394531 493.601562 497.082031 474.347656 548.265625 C 463.019531 578.398438 450.714844 602.136719 437.785156 618.835938 C 422.53125 638.527344 406.3125 648.488281 389.523438 648.488281 " fill-opacity="1" fill-rule="nonzero"/><path fill="#5479f7" d="M 947.769531 630.316406 C 924.179688 624.15625 910.054688 600.046875 916.222656 576.46875 C 922.390625 552.886719 946.507812 538.765625 970.09375 544.929688 C 993.683594 551.097656 1007.804688 575.203125 1001.640625 598.785156 C 995.472656 622.363281 971.359375 636.480469 947.769531 630.316406 Z M 1042.597656 618.34375 L 1046.929688 601.753906 L 1030.296875 593.148438 C 1030.613281 589.132812 1030.597656 585.136719 1030.238281 581.207031 L 1046.75 572.414062 L 1042.207031 555.882812 L 1023.496094 556.746094 C 1021.773438 553.152344 1019.757812 549.707031 1017.464844 546.449219 L 1027.378906 530.558594 L 1015.175781 518.511719 L 999.421875 528.597656 C 996.167969 526.367188 992.691406 524.398438 989.027344 522.707031 L 989.660156 503.996094 L 973.070312 499.660156 L 964.460938 516.292969 C 960.441406 515.972656 956.445312 515.992188 952.511719 516.339844 L 943.710938 499.839844 L 927.179688 504.378906 L 928.042969 523.085938 C 924.449219 524.808594 921.003906 526.824219 917.742188 529.117188 L 901.839844 519.207031 L 889.792969 531.402344 L 899.882812 547.148438 C 897.648438 550.402344 895.679688 553.878906 893.988281 557.542969 L 875.273438 556.90625 L 870.933594 573.492188 L 887.566406 582.09375 C 887.25 586.117188 887.273438 590.109375 887.625 594.039062 L 871.121094 602.835938 L 875.65625 619.367188 L 894.367188 618.503906 C 896.089844 622.097656 898.109375 625.539062 900.398438 628.796875 L 890.488281 644.6875 L 902.6875 656.734375 L 918.445312 646.648438 C 921.699219 648.882812 925.175781 650.851562 928.835938 652.539062 L 928.203125 671.25 L 944.796875 675.585938 L 953.402344 658.960938 C 957.425781 659.273438 961.414062 659.257812 965.347656 658.902344 L 974.152344 675.40625 L 990.6875 670.867188 L 989.820312 652.160156 C 993.417969 650.441406 996.859375 648.425781 1000.125 646.132812 L 1016.023438 656.039062 L 1028.074219 643.84375 L 1017.980469 628.097656 C 1020.214844 624.839844 1022.183594 621.367188 1023.875 617.710938 L 1042.597656 618.34375 " fill-opacity="1" fill-rule="nonzero"/><path fill="#000000" d="M 954.671875 537.59375 C 935.691406 537.59375 918.308594 550.34375 913.289062 569.539062 C 910.402344 580.585938 911.992188 592.097656 917.757812 601.953125 C 923.53125 611.800781 932.804688 618.816406 943.851562 621.707031 C 954.902344 624.59375 966.417969 623.003906 976.273438 617.238281 C 986.136719 611.46875 993.15625 602.207031 996.042969 591.160156 C 998.933594 580.109375 997.339844 568.601562 991.570312 558.746094 C 985.796875 548.894531 976.535156 541.878906 965.480469 538.988281 C 961.871094 538.046875 958.238281 537.59375 954.671875 537.59375 Z M 954.742188 625.871094 C 950.878906 625.871094 946.988281 625.378906 943.15625 624.378906 C 931.386719 621.300781 921.527344 613.832031 915.378906 603.34375 C 909.238281 592.855469 907.546875 580.601562 910.621094 568.84375 C 913.691406 557.082031 921.167969 547.222656 931.664062 541.082031 C 942.15625 534.9375 954.410156 533.246094 966.175781 536.320312 C 977.941406 539.394531 987.804688 546.863281 993.949219 557.351562 C 1000.09375 567.84375 1001.789062 580.097656 998.710938 591.855469 C 995.632812 603.613281 988.164062 613.476562 977.671875 619.617188 C 970.601562 623.757812 962.726562 625.871094 954.742188 625.871094 Z M 925.355469 662.921875 L 939.808594 666.695312 L 947.910156 651.046875 C 948.167969 650.554688 948.683594 650.265625 949.242188 650.304688 C 953.1875 650.617188 957.132812 650.601562 960.957031 650.257812 C 961.515625 650.207031 962.035156 650.496094 962.300781 650.980469 L 970.582031 666.511719 L 984.992188 662.550781 L 984.179688 644.949219 C 984.152344 644.398438 984.460938 643.882812 984.960938 643.644531 C 988.472656 641.960938 991.875 639.96875 995.058594 637.730469 C 995.515625 637.410156 996.113281 637.394531 996.585938 637.691406 L 1011.546875 647.007812 L 1022.046875 636.382812 L 1012.554688 621.5625 C 1012.253906 621.097656 1012.257812 620.496094 1012.578125 620.042969 C 1014.75 616.871094 1016.691406 613.449219 1018.351562 609.851562 C 1018.585938 609.351562 1019.105469 609.039062 1019.652344 609.050781 L 1037.265625 609.648438 L 1041.050781 595.199219 L 1025.394531 587.101562 C 1024.898438 586.847656 1024.609375 586.324219 1024.648438 585.769531 C 1024.964844 581.820312 1024.945312 577.886719 1024.597656 574.058594 C 1024.550781 573.507812 1024.835938 572.976562 1025.328125 572.71875 L 1040.863281 564.4375 L 1036.90625 550.035156 L 1019.289062 550.847656 C 1018.757812 550.863281 1018.226562 550.5625 1017.988281 550.0625 C 1016.296875 546.550781 1014.308594 543.152344 1012.066406 539.96875 C 1011.746094 539.515625 1011.730469 538.914062 1012.027344 538.449219 L 1021.355469 523.488281 L 1010.722656 512.992188 L 995.894531 522.484375 C 995.429688 522.78125 994.832031 522.773438 994.375 522.460938 C 991.203125 520.285156 987.773438 518.34375 984.183594 516.683594 C 983.683594 516.453125 983.363281 515.941406 983.382812 515.382812 L 983.984375 497.773438 L 969.519531 494 L 961.421875 509.648438 C 961.167969 510.144531 960.636719 510.429688 960.085938 510.390625 C 956.144531 510.082031 952.203125 510.097656 948.371094 510.441406 C 947.828125 510.484375 947.289062 510.207031 947.027344 509.71875 L 938.746094 494.1875 L 924.339844 498.144531 L 925.152344 515.746094 C 925.179688 516.300781 924.867188 516.8125 924.371094 517.054688 C 920.851562 518.738281 917.453125 520.730469 914.265625 522.96875 C 913.8125 523.285156 913.210938 523.300781 912.746094 523.011719 L 897.785156 513.683594 L 887.285156 524.3125 L 896.777344 539.128906 C 897.074219 539.597656 897.066406 540.199219 896.753906 540.65625 C 894.582031 543.820312 892.636719 547.246094 890.976562 550.84375 C 890.742188 551.347656 890.230469 551.664062 889.671875 551.644531 L 872.058594 551.046875 L 868.28125 565.496094 L 883.9375 573.597656 C 884.433594 573.851562 884.722656 574.378906 884.675781 574.929688 C 884.371094 578.871094 884.386719 582.8125 884.734375 586.640625 C 884.777344 587.191406 884.496094 587.71875 884.007812 587.980469 L 868.472656 596.257812 L 872.425781 610.664062 L 890.039062 609.851562 C 890.574219 609.828125 891.113281 610.136719 891.34375 610.628906 C 893.03125 614.144531 895.019531 617.542969 897.261719 620.730469 C 897.578125 621.179688 897.59375 621.78125 897.304688 622.253906 L 887.976562 637.207031 L 898.609375 647.703125 L 913.429688 638.214844 C 913.902344 637.914062 914.5 637.921875 914.957031 638.234375 C 918.125 640.410156 921.550781 642.351562 925.148438 644.015625 C 925.652344 644.246094 925.964844 644.757812 925.949219 645.308594 Z M 940.527344 669.6875 C 940.414062 669.6875 940.292969 669.675781 940.179688 669.644531 L 923.589844 665.308594 C 922.964844 665.148438 922.535156 664.574219 922.558594 663.933594 L 923.160156 646.128906 C 920.011719 644.625 916.988281 642.910156 914.15625 641.023438 L 899.167969 650.621094 C 898.621094 650.96875 897.914062 650.894531 897.453125 650.4375 L 885.253906 638.394531 C 884.796875 637.9375 884.710938 637.230469 885.054688 636.6875 L 894.480469 621.558594 C 892.539062 618.722656 890.785156 615.730469 889.261719 612.648438 L 871.453125 613.46875 C 870.800781 613.492188 870.230469 613.078125 870.0625 612.457031 L 865.519531 595.925781 C 865.347656 595.304688 865.632812 594.648438 866.199219 594.34375 L 881.902344 585.972656 C 881.648438 582.582031 881.628906 579.105469 881.863281 575.628906 L 866.03125 567.445312 C 865.464844 567.144531 865.167969 566.492188 865.332031 565.867188 L 869.675781 549.285156 C 869.832031 548.660156 870.398438 548.230469 871.050781 548.253906 L 888.859375 548.855469 C 890.359375 545.707031 892.078125 542.683594 893.96875 539.855469 L 884.367188 524.871094 C 884.019531 524.328125 884.097656 523.617188 884.546875 523.160156 L 896.59375 510.964844 C 897.050781 510.503906 897.757812 510.421875 898.308594 510.765625 L 913.433594 520.1875 C 916.273438 518.246094 919.265625 516.496094 922.351562 514.96875 L 921.535156 497.167969 C 921.5 496.527344 921.921875 495.949219 922.546875 495.777344 L 939.082031 491.238281 C 939.703125 491.066406 940.363281 491.347656 940.660156 491.917969 L 949.035156 507.617188 C 952.433594 507.355469 955.914062 507.34375 959.390625 507.570312 L 967.578125 491.75 C 967.871094 491.179688 968.53125 490.890625 969.152344 491.050781 L 985.742188 495.390625 C 986.367188 495.550781 986.792969 496.121094 986.769531 496.769531 L 986.171875 514.574219 C 989.320312 516.070312 992.34375 517.785156 995.175781 519.671875 L 1010.160156 510.078125 C 1010.707031 509.726562 1011.417969 509.800781 1011.875 510.257812 L 1024.074219 522.300781 C 1024.535156 522.757812 1024.617188 523.464844 1024.277344 524.015625 L 1014.847656 539.132812 C 1016.785156 541.972656 1018.546875 544.964844 1020.070312 548.046875 L 1037.878906 547.226562 C 1038.515625 547.191406 1039.105469 547.617188 1039.273438 548.238281 L 1043.8125 564.773438 C 1043.980469 565.394531 1043.699219 566.046875 1043.132812 566.351562 L 1027.425781 574.722656 C 1027.6875 578.121094 1027.703125 581.589844 1027.46875 585.066406 L 1043.292969 593.257812 C 1043.867188 593.550781 1044.15625 594.207031 1044 594.832031 L 1039.664062 611.414062 C 1039.496094 612.035156 1038.90625 612.445312 1038.28125 612.445312 L 1020.46875 611.839844 C 1018.964844 614.988281 1017.257812 618.011719 1015.367188 620.84375 L 1024.964844 635.824219 C 1025.3125 636.367188 1025.238281 637.078125 1024.789062 637.535156 L 1012.734375 649.730469 C 1012.28125 650.191406 1011.578125 650.277344 1011.023438 649.933594 L 995.890625 640.503906 C 993.058594 642.453125 990.0625 644.203125 986.980469 645.726562 L 987.800781 663.527344 C 987.828125 664.171875 987.40625 664.753906 986.785156 664.921875 L 970.25 669.460938 C 969.625 669.632812 968.96875 669.347656 968.664062 668.777344 L 960.289062 653.078125 C 956.898438 653.339844 953.421875 653.355469 949.941406 653.121094 L 941.753906 668.945312 C 941.515625 669.410156 941.035156 669.6875 940.527344 669.6875 " fill-opacity="1" fill-rule="nonzero"/><path fill="#5479f7" d="M 1037.375 489.640625 C 1020.742188 488.09375 1008.523438 473.363281 1010.066406 456.742188 C 1011.617188 440.121094 1026.355469 427.90625 1042.980469 429.457031 C 1059.605469 431 1071.832031 445.730469 1070.28125 462.351562 C 1068.734375 478.972656 1053.996094 491.191406 1037.375 489.640625 Z M 1100.128906 471.027344 L 1101.21875 459.339844 L 1089.023438 455.367188 C 1088.789062 452.613281 1088.332031 449.917969 1087.65625 447.300781 L 1097.835938 439.523438 L 1092.933594 428.855469 L 1080.382812 431.511719 C 1078.820312 429.277344 1077.074219 427.175781 1075.164062 425.226562 L 1080.097656 413.386719 L 1070.511719 406.597656 L 1060.992188 415.164062 C 1058.539062 414.011719 1055.96875 413.074219 1053.308594 412.335938 L 1051.664062 399.617188 L 1039.964844 398.53125 L 1035.992188 410.722656 C 1033.242188 410.957031 1030.539062 411.410156 1027.925781 412.085938 L 1020.144531 401.910156 L 1009.472656 406.808594 L 1012.132812 419.355469 C 1009.894531 420.917969 1007.789062 422.664062 1005.839844 424.570312 L 993.992188 419.644531 L 987.203125 429.222656 L 995.769531 438.742188 C 994.625 441.191406 993.683594 443.757812 992.941406 446.417969 L 980.222656 448.066406 L 979.128906 459.761719 L 991.332031 463.726562 C 991.5625 466.480469 992.015625 469.175781 992.6875 471.792969 L 982.507812 479.570312 L 987.417969 490.238281 L 999.96875 487.578125 C 1001.53125 489.816406 1003.277344 491.921875 1005.1875 493.867188 L 1000.25 505.710938 L 1009.835938 512.496094 L 1019.359375 503.933594 C 1021.808594 505.082031 1024.375 506.023438 1027.046875 506.757812 L 1028.691406 519.476562 L 1040.382812 520.570312 L 1044.355469 508.371094 C 1047.109375 508.144531 1049.8125 507.6875 1052.425781 507.011719 L 1060.207031 517.191406 L 1070.878906 512.285156 L 1068.21875 499.738281 C 1070.453125 498.175781 1072.5625 496.429688 1074.511719 494.523438 L 1086.355469 499.453125 L 1093.148438 489.875 L 1084.578125 480.351562 C 1085.730469 477.90625 1086.667969 475.339844 1087.410156 472.675781 L 1100.128906 471.027344 " fill-opacity="1" fill-rule="nonzero"/><path fill="#000000" d="M 1036.433594 426.257812 C 1029.730469 426.257812 1023.289062 428.570312 1018.058594 432.902344 C 1012.132812 437.820312 1008.46875 444.753906 1007.75 452.425781 C 1007.035156 460.097656 1009.355469 467.589844 1014.28125 473.519531 C 1019.195312 479.449219 1026.132812 483.109375 1033.8125 483.824219 C 1034.714844 483.90625 1035.613281 483.945312 1036.503906 483.945312 C 1051.222656 483.953125 1063.828125 472.710938 1065.222656 457.777344 C 1065.933594 450.105469 1063.613281 442.613281 1058.699219 436.683594 C 1053.773438 430.757812 1046.835938 427.097656 1039.160156 426.382812 C 1038.253906 426.296875 1037.34375 426.257812 1036.433594 426.257812 Z M 1036.503906 486.707031 C 1035.53125 486.707031 1034.542969 486.660156 1033.554688 486.570312 C 1025.144531 485.785156 1017.546875 481.777344 1012.15625 475.28125 C 1006.761719 468.785156 1004.226562 460.578125 1005.007812 452.171875 C 1005.789062 443.765625 1009.800781 436.167969 1016.296875 430.78125 C 1022.796875 425.390625 1031.007812 422.855469 1039.414062 423.636719 C 1047.828125 424.417969 1055.425781 428.425781 1060.820312 434.925781 C 1066.210938 441.421875 1068.746094 449.628906 1067.964844 458.035156 C 1066.4375 474.394531 1052.632812 486.707031 1036.503906 486.707031 Z M 1096.4375 466.582031 L 1096.449219 466.582031 Z M 1026.230469 513.761719 L 1035.730469 514.648438 L 1039.355469 503.503906 C 1039.53125 502.972656 1040 502.601562 1040.550781 502.558594 C 1043.234375 502.324219 1045.867188 501.886719 1048.390625 501.230469 C 1048.929688 501.09375 1049.496094 501.289062 1049.835938 501.730469 L 1056.945312 511.03125 L 1065.613281 507.046875 L 1063.183594 495.582031 C 1063.0625 495.039062 1063.289062 494.480469 1063.738281 494.164062 C 1065.90625 492.648438 1067.964844 490.945312 1069.855469 489.09375 C 1070.25 488.707031 1070.835938 488.59375 1071.347656 488.808594 L 1082.175781 493.3125 L 1087.695312 485.53125 L 1079.859375 476.828125 C 1079.492188 476.417969 1079.402344 475.824219 1079.640625 475.324219 C 1080.746094 472.960938 1081.671875 470.453125 1082.390625 467.863281 C 1082.53125 467.328125 1082.992188 466.933594 1083.539062 466.867188 L 1095.171875 465.355469 L 1096.050781 455.859375 L 1084.902344 452.234375 C 1084.378906 452.058594 1084.003906 451.589844 1083.953125 451.039062 C 1083.726562 448.359375 1083.285156 445.722656 1082.636719 443.203125 C 1082.492188 442.664062 1082.691406 442.097656 1083.132812 441.757812 L 1092.433594 434.652344 L 1088.453125 425.988281 L 1076.980469 428.417969 C 1076.433594 428.535156 1075.875 428.316406 1075.5625 427.859375 C 1074.046875 425.691406 1072.339844 423.636719 1070.488281 421.746094 C 1070.097656 421.351562 1069.988281 420.765625 1070.203125 420.253906 L 1074.710938 409.433594 L 1066.929688 403.914062 L 1058.21875 411.742188 C 1057.804688 412.113281 1057.214844 412.203125 1056.707031 411.96875 C 1054.347656 410.859375 1051.839844 409.933594 1049.25 409.21875 C 1048.714844 409.070312 1048.316406 408.617188 1048.25 408.066406 L 1046.742188 396.441406 L 1037.246094 395.558594 L 1033.613281 406.707031 C 1033.441406 407.230469 1032.976562 407.605469 1032.417969 407.652344 C 1029.738281 407.878906 1027.105469 408.324219 1024.578125 408.972656 C 1024.039062 409.109375 1023.476562 408.914062 1023.140625 408.476562 L 1016.027344 399.175781 L 1007.359375 403.15625 L 1009.789062 414.628906 C 1009.90625 415.167969 1009.6875 415.726562 1009.230469 416.042969 C 1007.0625 417.558594 1005.003906 419.265625 1003.117188 421.113281 C 1002.722656 421.503906 1002.136719 421.613281 1001.625 421.402344 L 990.792969 416.894531 L 985.277344 424.671875 L 993.105469 433.378906 C 993.476562 433.789062 993.566406 434.382812 993.332031 434.886719 C 992.226562 437.242188 991.300781 439.753906 990.582031 442.34375 C 990.433594 442.878906 989.976562 443.273438 989.433594 443.34375 L 977.808594 444.847656 L 976.914062 454.34375 L 988.066406 457.972656 C 988.59375 458.144531 988.96875 458.613281 989.015625 459.167969 C 989.246094 461.84375 989.6875 464.480469 990.34375 467.007812 C 990.472656 467.539062 990.28125 468.109375 989.839844 468.445312 L 980.535156 475.550781 L 984.519531 484.21875 L 995.988281 481.785156 C 996.535156 481.671875 997.089844 481.894531 997.410156 482.347656 C 998.921875 484.515625 1000.632812 486.570312 1002.480469 488.460938 C 1002.871094 488.855469 1002.980469 489.445312 1002.769531 489.953125 L 998.265625 500.777344 L 1006.042969 506.289062 L 1014.753906 498.464844 C 1015.160156 498.09375 1015.757812 498.007812 1016.257812 498.238281 C 1018.617188 499.34375 1021.128906 500.269531 1023.71875 500.984375 C 1024.253906 501.136719 1024.648438 501.589844 1024.722656 502.140625 Z M 1036.699219 517.503906 C 1036.65625 517.503906 1036.609375 517.496094 1036.570312 517.492188 L 1024.875 516.40625 C 1024.230469 516.34375 1023.714844 515.847656 1023.636719 515.210938 L 1022.105469 503.394531 C 1019.972656 502.761719 1017.90625 502.003906 1015.921875 501.117188 L 1007.066406 509.078125 C 1006.589844 509.503906 1005.871094 509.554688 1005.351562 509.175781 L 995.769531 502.390625 C 995.242188 502.015625 995.042969 501.328125 995.289062 500.734375 L 999.878906 489.726562 C 998.371094 488.140625 996.964844 486.445312 995.679688 484.671875 L 984.011719 487.144531 C 983.382812 487.277344 982.738281 486.957031 982.476562 486.371094 L 977.566406 475.703125 C 977.300781 475.113281 977.472656 474.421875 977.984375 474.03125 L 987.445312 466.800781 C 986.941406 464.695312 986.578125 462.519531 986.347656 460.3125 L 975.015625 456.621094 C 974.402344 456.425781 974.011719 455.828125 974.074219 455.183594 L 975.15625 443.496094 C 975.21875 442.851562 975.714844 442.339844 976.351562 442.253906 L 988.175781 440.722656 C 988.808594 438.597656 989.570312 436.527344 990.453125 434.546875 L 982.492188 425.699219 C 982.054688 425.21875 982.015625 424.507812 982.390625 423.980469 L 989.179688 414.398438 C 989.554688 413.875 990.242188 413.675781 990.835938 413.921875 L 1001.847656 418.503906 C 1003.4375 417.003906 1005.136719 415.597656 1006.902344 414.316406 L 1004.429688 402.652344 C 1004.296875 402.019531 1004.621094 401.382812 1005.207031 401.109375 L 1015.878906 396.210938 C 1016.464844 395.9375 1017.15625 396.113281 1017.546875 396.628906 L 1024.78125 406.082031 C 1026.890625 405.582031 1029.066406 405.214844 1031.273438 404.988281 L 1034.964844 393.65625 C 1035.167969 393.042969 1035.761719 392.652344 1036.402344 392.710938 L 1048.097656 393.800781 C 1048.742188 393.859375 1049.253906 394.355469 1049.335938 394.996094 L 1050.871094 406.816406 C 1052.996094 407.441406 1055.066406 408.207031 1057.050781 409.089844 L 1065.90625 401.128906 C 1066.382812 400.699219 1067.09375 400.65625 1067.621094 401.027344 L 1077.207031 407.820312 C 1077.734375 408.191406 1077.925781 408.875 1077.683594 409.472656 L 1073.09375 420.476562 C 1074.597656 422.070312 1076.007812 423.757812 1077.292969 425.535156 L 1088.957031 423.058594 C 1089.585938 422.929688 1090.230469 423.25 1090.5 423.835938 L 1095.402344 434.5 C 1095.671875 435.089844 1095.496094 435.785156 1094.984375 436.175781 L 1085.527344 443.402344 C 1086.027344 445.507812 1086.394531 447.683594 1086.621094 449.890625 L 1097.960938 453.582031 C 1098.570312 453.78125 1098.960938 454.375 1098.902344 455.019531 L 1097.8125 466.710938 C 1097.753906 467.351562 1097.257812 467.867188 1096.613281 467.949219 L 1084.792969 469.480469 C 1084.164062 471.605469 1083.402344 473.675781 1082.515625 475.65625 L 1090.480469 484.507812 C 1090.910156 484.984375 1090.957031 485.703125 1090.582031 486.226562 L 1083.789062 495.804688 C 1083.417969 496.332031 1082.730469 496.53125 1082.136719 496.28125 L 1071.125 491.699219 C 1069.535156 493.203125 1067.835938 494.605469 1066.066406 495.894531 L 1068.542969 507.554688 C 1068.675781 508.183594 1068.355469 508.828125 1067.765625 509.09375 L 1057.09375 513.996094 C 1056.503906 514.265625 1055.8125 514.09375 1055.421875 513.582031 L 1048.191406 504.121094 C 1046.082031 504.621094 1043.898438 504.988281 1041.695312 505.21875 L 1038.011719 516.546875 C 1037.824219 517.121094 1037.292969 517.503906 1036.699219 517.503906 " fill-opacity="1" fill-rule="nonzero"/><path fill="#000000" d="M 898.167969 386.304688 C 883.933594 405.761719 856.613281 410.007812 837.148438 395.777344 C 817.679688 381.554688 813.4375 354.246094 827.667969 334.789062 C 841.898438 315.328125 869.21875 311.082031 888.683594 325.308594 C 908.15625 339.535156 912.402344 366.84375 898.167969 386.304688 Z M 892.496094 318.21875 C 869.285156 301.257812 836.710938 306.3125 819.746094 329.515625 C 802.773438 352.71875 807.835938 385.28125 831.042969 402.242188 C 854.257812 419.203125 886.824219 414.148438 903.796875 390.941406 C 920.765625 367.742188 915.703125 335.179688 892.496094 318.21875 " fill-opacity="1" fill-rule="nonzero"/><path fill="#000000" d="M 779.652344 477.914062 C 776.433594 475.558594 775.730469 471.042969 778.085938 467.820312 L 832.671875 393.183594 L 844.332031 401.707031 L 789.746094 476.347656 C 787.390625 479.5625 782.871094 480.265625 779.652344 477.914062 " fill-opacity="1" fill-rule="nonzero"/><path fill="#ffffff" d="M 886.839844 391.332031 C 886.433594 391.332031 886.03125 391.152344 885.761719 390.8125 C 885.28125 390.21875 885.382812 389.347656 885.976562 388.875 C 894.675781 381.9375 899.660156 371.585938 899.660156 360.472656 C 899.660156 354.8125 898.390625 349.386719 895.894531 344.351562 C 895.554688 343.675781 895.835938 342.84375 896.519531 342.507812 C 897.199219 342.167969 898.027344 342.445312 898.371094 343.128906 C 901.054688 348.542969 902.417969 354.382812 902.417969 360.472656 C 902.417969 372.429688 897.054688 383.566406 887.695312 391.027344 C 887.441406 391.234375 887.136719 391.332031 886.839844 391.332031 " fill-opacity="1" fill-rule="nonzero"/><path fill="#ffffff" d="M 889.195312 334.421875 C 888.855469 334.421875 888.515625 334.296875 888.25 334.042969 C 885.082031 331.066406 881.460938 328.703125 877.476562 327.015625 C 876.769531 326.71875 876.445312 325.914062 876.742188 325.210938 C 877.039062 324.507812 877.847656 324.175781 878.550781 324.476562 C 882.835938 326.289062 886.738281 328.832031 890.140625 332.035156 C 890.695312 332.5625 890.722656 333.433594 890.199219 333.988281 C 889.925781 334.273438 889.5625 334.421875 889.195312 334.421875 " fill-opacity="1" fill-rule="nonzero"/><path fill="#ffffff" d="M 863.335938 399.546875 C 843.257812 399.546875 826.546875 384.515625 824.464844 364.582031 C 824.382812 363.824219 824.933594 363.144531 825.691406 363.066406 C 826.445312 362.988281 827.125 363.539062 827.207031 364.296875 C 829.144531 382.820312 844.675781 396.785156 863.335938 396.785156 C 864.976562 396.785156 866.621094 396.679688 868.234375 396.460938 C 868.988281 396.359375 869.683594 396.886719 869.785156 397.640625 C 869.890625 398.394531 869.355469 399.089844 868.601562 399.191406 C 866.867188 399.429688 865.09375 399.546875 863.335938 399.546875 " fill-opacity="1" fill-rule="nonzero"/></svg>