<svg xmlns="http://www.w3.org/2000/svg" xmlns:xlink="http://www.w3.org/1999/xlink" width="1920" zoomAndPan="magnify" viewBox="0 0 1440 809.999993" height="1080" preserveAspectRatio="xMidYMid meet" version="1.0"><defs><g/><clipPath id="d9fd86deb6"><path d="M 245 0 L 353 0 L 353 78.472656 L 245 78.472656 Z M 245 0 " clip-rule="nonzero"/></clipPath></defs><g fill="#ffffff" fill-opacity="1"><g transform="translate(134.48729, 353.005926)"><g><path d="M 53.421875 1.203125 C 45.035156 1.203125 37.476562 -0.226562 30.75 -3.09375 C 24.03125 -5.96875 18.71875 -10.101562 14.8125 -15.5 C 10.914062 -20.90625 8.90625 -27.285156 8.78125 -34.640625 L 34.640625 -34.640625 C 34.984375 -29.703125 36.734375 -25.796875 39.890625 -22.921875 C 43.054688 -20.046875 47.394531 -18.609375 52.90625 -18.609375 C 58.53125 -18.609375 62.953125 -19.957031 66.171875 -22.65625 C 69.390625 -25.351562 71 -28.890625 71 -33.265625 C 71 -36.816406 69.90625 -39.742188 67.71875 -42.046875 C 65.539062 -44.347656 62.8125 -46.15625 59.53125 -47.46875 C 56.257812 -48.789062 51.753906 -50.257812 46.015625 -51.875 C 38.203125 -54.164062 31.851562 -56.429688 26.96875 -58.671875 C 22.082031 -60.910156 17.890625 -64.300781 14.390625 -68.84375 C 10.890625 -73.382812 9.140625 -79.445312 9.140625 -87.03125 C 9.140625 -94.144531 10.914062 -100.34375 14.46875 -105.625 C 18.03125 -110.914062 23.03125 -114.96875 29.46875 -117.78125 C 35.90625 -120.601562 43.257812 -122.015625 51.53125 -122.015625 C 63.9375 -122.015625 74.015625 -118.992188 81.765625 -112.953125 C 89.523438 -106.921875 93.804688 -98.507812 94.609375 -87.71875 L 68.0625 -87.71875 C 67.832031 -91.851562 66.082031 -95.269531 62.8125 -97.96875 C 59.539062 -100.664062 55.203125 -102.015625 49.796875 -102.015625 C 45.085938 -102.015625 41.328125 -100.804688 38.515625 -98.390625 C 35.703125 -95.984375 34.296875 -92.484375 34.296875 -87.890625 C 34.296875 -84.671875 35.359375 -82 37.484375 -79.875 C 39.609375 -77.75 42.25 -76.023438 45.40625 -74.703125 C 48.5625 -73.378906 53.015625 -71.859375 58.765625 -70.140625 C 66.578125 -67.835938 72.953125 -65.535156 77.890625 -63.234375 C 82.828125 -60.941406 87.078125 -57.5 90.640625 -52.90625 C 94.203125 -48.3125 95.984375 -42.28125 95.984375 -34.8125 C 95.984375 -28.375 94.316406 -22.394531 90.984375 -16.875 C 87.648438 -11.363281 82.765625 -6.972656 76.328125 -3.703125 C 69.898438 -0.429688 62.265625 1.203125 53.421875 1.203125 Z M 53.421875 1.203125 "/></g></g></g><g fill="#ffffff" fill-opacity="1"><g transform="translate(233.924269, 353.005926)"><g><path d="M 102.015625 -95.46875 L 102.015625 0 L 77.71875 0 L 77.71875 -12.0625 C 74.613281 -7.925781 70.5625 -4.679688 65.5625 -2.328125 C 60.570312 0.0234375 55.144531 1.203125 49.28125 1.203125 C 41.8125 1.203125 35.207031 -0.375 29.46875 -3.53125 C 23.726562 -6.6875 19.21875 -11.335938 15.9375 -17.484375 C 12.664062 -23.628906 11.03125 -30.957031 11.03125 -39.46875 L 11.03125 -95.46875 L 35.15625 -95.46875 L 35.15625 -42.90625 C 35.15625 -35.320312 37.050781 -29.488281 40.84375 -25.40625 C 44.632812 -21.332031 49.800781 -19.296875 56.34375 -19.296875 C 63.007812 -19.296875 68.238281 -21.332031 72.03125 -25.40625 C 75.820312 -29.488281 77.71875 -35.320312 77.71875 -42.90625 L 77.71875 -95.46875 Z M 102.015625 -95.46875 "/></g></g></g><g fill="#ffffff" fill-opacity="1"><g transform="translate(342.322649, 353.005926)"><g><path d="M 36.015625 -81.6875 C 39.117188 -86.050781 43.398438 -89.695312 48.859375 -92.625 C 54.316406 -95.550781 60.546875 -97.015625 67.546875 -97.015625 C 75.703125 -97.015625 83.082031 -95.003906 89.6875 -90.984375 C 96.300781 -86.960938 101.53125 -81.25 105.375 -73.84375 C 109.226562 -66.4375 111.15625 -57.847656 111.15625 -48.078125 C 111.15625 -38.316406 109.226562 -29.671875 105.375 -22.140625 C 101.53125 -14.617188 96.300781 -8.789062 89.6875 -4.65625 C 83.082031 -0.519531 75.703125 1.546875 67.546875 1.546875 C 60.546875 1.546875 54.375 0.113281 49.03125 -2.75 C 43.6875 -5.625 39.347656 -9.242188 36.015625 -13.609375 L 36.015625 45.5 L 11.890625 45.5 L 11.890625 -95.46875 L 36.015625 -95.46875 Z M 86.515625 -48.078125 C 86.515625 -53.828125 85.332031 -58.796875 82.96875 -62.984375 C 80.613281 -67.179688 77.507812 -70.367188 73.65625 -72.546875 C 69.8125 -74.734375 65.648438 -75.828125 61.171875 -75.828125 C 56.804688 -75.828125 52.695312 -74.707031 48.84375 -72.46875 C 45 -70.226562 41.898438 -66.976562 39.546875 -62.71875 C 37.191406 -58.46875 36.015625 -53.472656 36.015625 -47.734375 C 36.015625 -41.992188 37.191406 -36.992188 39.546875 -32.734375 C 41.898438 -28.484375 45 -25.238281 48.84375 -23 C 52.695312 -20.757812 56.804688 -19.640625 61.171875 -19.640625 C 65.648438 -19.640625 69.8125 -20.785156 73.65625 -23.078125 C 77.507812 -25.378906 80.613281 -28.65625 82.96875 -32.90625 C 85.332031 -37.164062 86.515625 -42.222656 86.515625 -48.078125 Z M 86.515625 -48.078125 "/></g></g></g><g fill="#ffffff" fill-opacity="1"><g transform="translate(453.650703, 353.005926)"><g><path d="M 100.640625 -49.796875 C 100.640625 -46.359375 100.410156 -43.257812 99.953125 -40.5 L 30.15625 -40.5 C 30.726562 -33.601562 33.140625 -28.203125 37.390625 -24.296875 C 41.640625 -20.390625 46.867188 -18.4375 53.078125 -18.4375 C 62.035156 -18.4375 68.410156 -22.285156 72.203125 -29.984375 L 98.234375 -29.984375 C 95.472656 -20.796875 90.1875 -13.242188 82.375 -7.328125 C 74.5625 -1.410156 64.96875 1.546875 53.59375 1.546875 C 44.40625 1.546875 36.160156 -0.488281 28.859375 -4.5625 C 21.566406 -8.644531 15.878906 -14.421875 11.796875 -21.890625 C 7.722656 -29.359375 5.6875 -37.972656 5.6875 -47.734375 C 5.6875 -57.617188 7.695312 -66.289062 11.71875 -73.75 C 15.738281 -81.21875 21.367188 -86.960938 28.609375 -90.984375 C 35.847656 -95.003906 44.175781 -97.015625 53.59375 -97.015625 C 62.664062 -97.015625 70.789062 -95.0625 77.96875 -91.15625 C 85.15625 -87.25 90.726562 -81.707031 94.6875 -74.53125 C 98.65625 -67.351562 100.640625 -59.109375 100.640625 -49.796875 Z M 75.65625 -56.703125 C 75.539062 -62.898438 73.300781 -67.863281 68.9375 -71.59375 C 64.570312 -75.332031 59.226562 -77.203125 52.90625 -77.203125 C 46.925781 -77.203125 41.894531 -75.390625 37.8125 -71.765625 C 33.738281 -68.148438 31.242188 -63.128906 30.328125 -56.703125 Z M 75.65625 -56.703125 "/></g></g></g><g fill="#ffffff" fill-opacity="1"><g transform="translate(554.466352, 353.005926)"><g><path d="M 36.015625 -80.65625 C 39.117188 -85.707031 43.164062 -89.664062 48.15625 -92.53125 C 53.15625 -95.40625 58.875 -96.84375 65.3125 -96.84375 L 65.3125 -71.515625 L 58.9375 -71.515625 C 51.351562 -71.515625 45.632812 -69.734375 41.78125 -66.171875 C 37.9375 -62.609375 36.015625 -56.40625 36.015625 -47.5625 L 36.015625 0 L 11.890625 0 L 11.890625 -95.46875 L 36.015625 -95.46875 Z M 36.015625 -80.65625 "/></g></g></g><g fill="#ffffff" fill-opacity="1"><g transform="translate(618.574777, 353.005926)"><g><path d="M 130.453125 -96.84375 C 142.171875 -96.84375 151.617188 -93.253906 158.796875 -86.078125 C 165.984375 -78.898438 169.578125 -68.875 169.578125 -56 L 169.578125 0 L 145.4375 0 L 145.4375 -52.734375 C 145.4375 -60.203125 143.539062 -65.914062 139.75 -69.875 C 135.96875 -73.84375 130.800781 -75.828125 124.25 -75.828125 C 117.695312 -75.828125 112.492188 -73.84375 108.640625 -69.875 C 104.796875 -65.914062 102.875 -60.203125 102.875 -52.734375 L 102.875 0 L 78.75 0 L 78.75 -52.734375 C 78.75 -60.203125 76.851562 -65.914062 73.0625 -69.875 C 69.269531 -73.84375 64.101562 -75.828125 57.5625 -75.828125 C 50.894531 -75.828125 45.632812 -73.84375 41.78125 -69.875 C 37.9375 -65.914062 36.015625 -60.203125 36.015625 -52.734375 L 36.015625 0 L 11.890625 0 L 11.890625 -95.46875 L 36.015625 -95.46875 L 36.015625 -83.921875 C 39.117188 -87.941406 43.109375 -91.097656 47.984375 -93.390625 C 52.867188 -95.691406 58.242188 -96.84375 64.109375 -96.84375 C 71.578125 -96.84375 78.238281 -95.265625 84.09375 -92.109375 C 89.957031 -88.953125 94.492188 -84.441406 97.703125 -78.578125 C 100.804688 -84.097656 105.316406 -88.519531 111.234375 -91.84375 C 117.148438 -95.175781 123.554688 -96.84375 130.453125 -96.84375 Z M 130.453125 -96.84375 "/></g></g></g><g fill="#ffffff" fill-opacity="1"><g transform="translate(793.666588, 353.005926)"><g><path d="M 5.6875 -48.078125 C 5.6875 -57.734375 7.609375 -66.289062 11.453125 -73.75 C 15.304688 -81.21875 20.535156 -86.960938 27.140625 -90.984375 C 33.742188 -95.003906 41.125 -97.015625 49.28125 -97.015625 C 56.40625 -97.015625 62.640625 -95.578125 67.984375 -92.703125 C 73.328125 -89.835938 77.609375 -86.222656 80.828125 -81.859375 L 80.828125 -95.46875 L 105.125 -95.46875 L 105.125 0 L 80.828125 0 L 80.828125 -13.953125 C 77.722656 -9.472656 73.441406 -5.769531 67.984375 -2.84375 C 62.523438 0.0820312 56.234375 1.546875 49.109375 1.546875 C 41.066406 1.546875 33.742188 -0.519531 27.140625 -4.65625 C 20.535156 -8.789062 15.304688 -14.617188 11.453125 -22.140625 C 7.609375 -29.671875 5.6875 -38.316406 5.6875 -48.078125 Z M 80.828125 -47.734375 C 80.828125 -53.597656 79.675781 -58.625 77.375 -62.8125 C 75.070312 -67.007812 71.96875 -70.226562 68.0625 -72.46875 C 64.15625 -74.707031 59.960938 -75.828125 55.484375 -75.828125 C 51.003906 -75.828125 46.867188 -74.734375 43.078125 -72.546875 C 39.285156 -70.367188 36.210938 -67.179688 33.859375 -62.984375 C 31.503906 -58.796875 30.328125 -53.828125 30.328125 -48.078125 C 30.328125 -42.335938 31.503906 -37.3125 33.859375 -33 C 36.210938 -28.6875 39.3125 -25.378906 43.15625 -23.078125 C 47.007812 -20.785156 51.117188 -19.640625 55.484375 -19.640625 C 59.960938 -19.640625 64.15625 -20.757812 68.0625 -23 C 71.96875 -25.238281 75.070312 -28.457031 77.375 -32.65625 C 79.675781 -36.851562 80.828125 -41.878906 80.828125 -47.734375 Z M 80.828125 -47.734375 "/></g></g></g><g fill="#ffffff" fill-opacity="1"><g transform="translate(904.994642, 353.005926)"><g><path d="M 36.015625 -80.65625 C 39.117188 -85.707031 43.164062 -89.664062 48.15625 -92.53125 C 53.15625 -95.40625 58.875 -96.84375 65.3125 -96.84375 L 65.3125 -71.515625 L 58.9375 -71.515625 C 51.351562 -71.515625 45.632812 -69.734375 41.78125 -66.171875 C 37.9375 -62.609375 36.015625 -56.40625 36.015625 -47.5625 L 36.015625 0 L 11.890625 0 L 11.890625 -95.46875 L 36.015625 -95.46875 Z M 36.015625 -80.65625 "/></g></g></g><g fill="#ffffff" fill-opacity="1"><g transform="translate(969.103067, 353.005926)"><g><path d="M 68.421875 0 L 36.015625 -40.671875 L 36.015625 0 L 11.890625 0 L 11.890625 -127.515625 L 36.015625 -127.515625 L 36.015625 -54.96875 L 68.0625 -95.46875 L 99.4375 -95.46875 L 57.390625 -47.5625 L 99.78125 0 Z M 68.421875 0 "/></g></g></g><g fill="#ffffff" fill-opacity="1"><g transform="translate(1064.231657, 353.005926)"><g><path d="M 100.640625 -49.796875 C 100.640625 -46.359375 100.410156 -43.257812 99.953125 -40.5 L 30.15625 -40.5 C 30.726562 -33.601562 33.140625 -28.203125 37.390625 -24.296875 C 41.640625 -20.390625 46.867188 -18.4375 53.078125 -18.4375 C 62.035156 -18.4375 68.410156 -22.285156 72.203125 -29.984375 L 98.234375 -29.984375 C 95.472656 -20.796875 90.1875 -13.242188 82.375 -7.328125 C 74.5625 -1.410156 64.96875 1.546875 53.59375 1.546875 C 44.40625 1.546875 36.160156 -0.488281 28.859375 -4.5625 C 21.566406 -8.644531 15.878906 -14.421875 11.796875 -21.890625 C 7.722656 -29.359375 5.6875 -37.972656 5.6875 -47.734375 C 5.6875 -57.617188 7.695312 -66.289062 11.71875 -73.75 C 15.738281 -81.21875 21.367188 -86.960938 28.609375 -90.984375 C 35.847656 -95.003906 44.175781 -97.015625 53.59375 -97.015625 C 62.664062 -97.015625 70.789062 -95.0625 77.96875 -91.15625 C 85.15625 -87.25 90.726562 -81.707031 94.6875 -74.53125 C 98.65625 -67.351562 100.640625 -59.109375 100.640625 -49.796875 Z M 75.65625 -56.703125 C 75.539062 -62.898438 73.300781 -67.863281 68.9375 -71.59375 C 64.570312 -75.332031 59.226562 -77.203125 52.90625 -77.203125 C 46.925781 -77.203125 41.894531 -75.390625 37.8125 -71.765625 C 33.738281 -68.148438 31.242188 -63.128906 30.328125 -56.703125 Z M 75.65625 -56.703125 "/></g></g></g><g fill="#ffffff" fill-opacity="1"><g transform="translate(1165.047258, 353.005926)"><g><path d="M 39.984375 -75.65625 L 39.984375 -29.46875 C 39.984375 -26.25 40.757812 -23.921875 42.3125 -22.484375 C 43.863281 -21.046875 46.472656 -20.328125 50.140625 -20.328125 L 61.34375 -20.328125 L 61.34375 0 L 46.1875 0 C 25.851562 0 15.6875 -9.878906 15.6875 -29.640625 L 15.6875 -75.65625 L 4.3125 -75.65625 L 4.3125 -95.46875 L 15.6875 -95.46875 L 15.6875 -119.078125 L 39.984375 -119.078125 L 39.984375 -95.46875 L 61.34375 -95.46875 L 61.34375 -75.65625 Z M 39.984375 -75.65625 "/></g></g></g><g fill="#ffffff" fill-opacity="1"><g transform="translate(134.48729, 559.191812)"><g><path d="M 48.421875 1.546875 C 40.609375 1.546875 33.597656 0.140625 27.390625 -2.671875 C 21.191406 -5.484375 16.28125 -9.300781 12.65625 -14.125 C 9.039062 -18.957031 7.0625 -24.300781 6.71875 -30.15625 L 31.015625 -30.15625 C 31.472656 -26.476562 33.28125 -23.429688 36.4375 -21.015625 C 39.601562 -18.609375 43.539062 -17.40625 48.25 -17.40625 C 52.84375 -17.40625 56.429688 -18.320312 59.015625 -20.15625 C 61.609375 -22 62.90625 -24.359375 62.90625 -27.234375 C 62.90625 -30.328125 61.320312 -32.648438 58.15625 -34.203125 C 55 -35.753906 49.972656 -37.453125 43.078125 -39.296875 C 35.953125 -41.015625 30.117188 -42.789062 25.578125 -44.625 C 21.046875 -46.46875 17.144531 -49.285156 13.875 -53.078125 C 10.601562 -56.867188 8.96875 -61.984375 8.96875 -68.421875 C 8.96875 -73.703125 10.488281 -78.523438 13.53125 -82.890625 C 16.570312 -87.253906 20.9375 -90.695312 26.625 -93.21875 C 32.3125 -95.75 39.003906 -97.015625 46.703125 -97.015625 C 58.078125 -97.015625 67.148438 -94.171875 73.921875 -88.484375 C 80.703125 -82.796875 84.4375 -75.128906 85.125 -65.484375 L 62.03125 -65.484375 C 61.6875 -69.273438 60.109375 -72.289062 57.296875 -74.53125 C 54.484375 -76.769531 50.722656 -77.890625 46.015625 -77.890625 C 41.648438 -77.890625 38.285156 -77.082031 35.921875 -75.46875 C 33.566406 -73.863281 32.390625 -71.628906 32.390625 -68.765625 C 32.390625 -65.546875 34 -63.101562 37.21875 -61.4375 C 40.4375 -59.769531 45.4375 -58.070312 52.21875 -56.34375 C 59.113281 -54.625 64.800781 -52.84375 69.28125 -51 C 73.757812 -49.164062 77.632812 -46.320312 80.90625 -42.46875 C 84.175781 -38.625 85.867188 -33.546875 85.984375 -27.234375 C 85.984375 -21.710938 84.460938 -16.769531 81.421875 -12.40625 C 78.378906 -8.039062 74.015625 -4.625 68.328125 -2.15625 C 62.640625 0.3125 56.003906 1.546875 48.421875 1.546875 Z M 48.421875 1.546875 "/></g></g></g><g fill="#ffffff" fill-opacity="1"><g transform="translate(222.894865, 559.191812)"><g><path d="M 39.984375 -75.65625 L 39.984375 -29.46875 C 39.984375 -26.25 40.757812 -23.921875 42.3125 -22.484375 C 43.863281 -21.046875 46.472656 -20.328125 50.140625 -20.328125 L 61.34375 -20.328125 L 61.34375 0 L 46.1875 0 C 25.851562 0 15.6875 -9.878906 15.6875 -29.640625 L 15.6875 -75.65625 L 4.3125 -75.65625 L 4.3125 -95.46875 L 15.6875 -95.46875 L 15.6875 -119.078125 L 39.984375 -119.078125 L 39.984375 -95.46875 L 61.34375 -95.46875 L 61.34375 -75.65625 Z M 39.984375 -75.65625 "/></g></g></g><g fill="#ffffff" fill-opacity="1"><g transform="translate(284.245928, 559.191812)"><g><path d="M 54.28125 1.546875 C 45.09375 1.546875 36.820312 -0.488281 29.46875 -4.5625 C 22.113281 -8.644531 16.335938 -14.421875 12.140625 -21.890625 C 7.953125 -29.359375 5.859375 -37.972656 5.859375 -47.734375 C 5.859375 -57.503906 8.007812 -66.117188 12.3125 -73.578125 C 16.625 -81.046875 22.515625 -86.816406 29.984375 -90.890625 C 37.453125 -94.972656 45.78125 -97.015625 54.96875 -97.015625 C 64.164062 -97.015625 72.492188 -94.972656 79.953125 -90.890625 C 87.421875 -86.816406 93.3125 -81.046875 97.625 -73.578125 C 101.9375 -66.117188 104.09375 -57.503906 104.09375 -47.734375 C 104.09375 -37.972656 101.878906 -29.359375 97.453125 -21.890625 C 93.023438 -14.421875 87.046875 -8.644531 79.515625 -4.5625 C 71.992188 -0.488281 63.582031 1.546875 54.28125 1.546875 Z M 54.28125 -19.46875 C 58.644531 -19.46875 62.75 -20.53125 66.59375 -22.65625 C 70.445312 -24.78125 73.519531 -27.96875 75.8125 -32.21875 C 78.113281 -36.46875 79.265625 -41.640625 79.265625 -47.734375 C 79.265625 -56.804688 76.878906 -63.785156 72.109375 -68.671875 C 67.347656 -73.554688 61.519531 -76 54.625 -76 C 47.726562 -76 41.953125 -73.554688 37.296875 -68.671875 C 32.648438 -63.785156 30.328125 -56.804688 30.328125 -47.734375 C 30.328125 -38.660156 32.59375 -31.679688 37.125 -26.796875 C 41.664062 -21.910156 47.382812 -19.46875 54.28125 -19.46875 Z M 54.28125 -19.46875 "/></g></g></g><g fill="#ffffff" fill-opacity="1"><g transform="translate(388.680608, 559.191812)"><g><path d="M 36.015625 -80.65625 C 39.117188 -85.707031 43.164062 -89.664062 48.15625 -92.53125 C 53.15625 -95.40625 58.875 -96.84375 65.3125 -96.84375 L 65.3125 -71.515625 L 58.9375 -71.515625 C 51.351562 -71.515625 45.632812 -69.734375 41.78125 -66.171875 C 37.9375 -62.609375 36.015625 -56.40625 36.015625 -47.5625 L 36.015625 0 L 11.890625 0 L 11.890625 -95.46875 L 36.015625 -95.46875 Z M 36.015625 -80.65625 "/></g></g></g><g fill="#ffffff" fill-opacity="1"><g transform="translate(452.789033, 559.191812)"><g><path d="M 5.6875 -48.078125 C 5.6875 -57.734375 7.609375 -66.289062 11.453125 -73.75 C 15.304688 -81.21875 20.535156 -86.960938 27.140625 -90.984375 C 33.742188 -95.003906 41.125 -97.015625 49.28125 -97.015625 C 56.40625 -97.015625 62.640625 -95.578125 67.984375 -92.703125 C 73.328125 -89.835938 77.609375 -86.222656 80.828125 -81.859375 L 80.828125 -95.46875 L 105.125 -95.46875 L 105.125 0 L 80.828125 0 L 80.828125 -13.953125 C 77.722656 -9.472656 73.441406 -5.769531 67.984375 -2.84375 C 62.523438 0.0820312 56.234375 1.546875 49.109375 1.546875 C 41.066406 1.546875 33.742188 -0.519531 27.140625 -4.65625 C 20.535156 -8.789062 15.304688 -14.617188 11.453125 -22.140625 C 7.609375 -29.671875 5.6875 -38.316406 5.6875 -48.078125 Z M 80.828125 -47.734375 C 80.828125 -53.597656 79.675781 -58.625 77.375 -62.8125 C 75.070312 -67.007812 71.96875 -70.226562 68.0625 -72.46875 C 64.15625 -74.707031 59.960938 -75.828125 55.484375 -75.828125 C 51.003906 -75.828125 46.867188 -74.734375 43.078125 -72.546875 C 39.285156 -70.367188 36.210938 -67.179688 33.859375 -62.984375 C 31.503906 -58.796875 30.328125 -53.828125 30.328125 -48.078125 C 30.328125 -42.335938 31.503906 -37.3125 33.859375 -33 C 36.210938 -28.6875 39.3125 -25.378906 43.15625 -23.078125 C 47.007812 -20.785156 51.117188 -19.640625 55.484375 -19.640625 C 59.960938 -19.640625 64.15625 -20.757812 68.0625 -23 C 71.96875 -25.238281 75.070312 -28.457031 77.375 -32.65625 C 79.675781 -36.851562 80.828125 -41.878906 80.828125 -47.734375 Z M 80.828125 -47.734375 "/></g></g></g><g fill="#ffffff" fill-opacity="1"><g transform="translate(564.117087, 559.191812)"><g><path d="M 49.28125 -97.015625 C 56.40625 -97.015625 62.664062 -95.609375 68.0625 -92.796875 C 73.46875 -89.984375 77.722656 -86.335938 80.828125 -81.859375 L 80.828125 -95.46875 L 105.125 -95.46875 L 105.125 0.6875 C 105.125 9.53125 103.34375 17.425781 99.78125 24.375 C 96.21875 31.332031 90.875 36.847656 83.75 40.921875 C 76.625 45.003906 68.007812 47.046875 57.90625 47.046875 C 44.34375 47.046875 33.222656 43.882812 24.546875 37.5625 C 15.878906 31.25 10.972656 22.632812 9.828125 11.71875 L 33.78125 11.71875 C 35.039062 16.082031 37.765625 19.554688 41.953125 22.140625 C 46.148438 24.722656 51.238281 26.015625 57.21875 26.015625 C 64.21875 26.015625 69.898438 23.914062 74.265625 19.71875 C 78.640625 15.53125 80.828125 9.1875 80.828125 0.6875 L 80.828125 -14.125 C 77.722656 -9.644531 73.441406 -5.910156 67.984375 -2.921875 C 62.523438 0.0546875 56.289062 1.546875 49.28125 1.546875 C 41.238281 1.546875 33.882812 -0.519531 27.21875 -4.65625 C 20.5625 -8.789062 15.304688 -14.617188 11.453125 -22.140625 C 7.609375 -29.671875 5.6875 -38.316406 5.6875 -48.078125 C 5.6875 -57.734375 7.609375 -66.289062 11.453125 -73.75 C 15.304688 -81.21875 20.535156 -86.960938 27.140625 -90.984375 C 33.742188 -95.003906 41.125 -97.015625 49.28125 -97.015625 Z M 80.828125 -47.734375 C 80.828125 -53.597656 79.675781 -58.625 77.375 -62.8125 C 75.070312 -67.007812 71.96875 -70.226562 68.0625 -72.46875 C 64.15625 -74.707031 59.960938 -75.828125 55.484375 -75.828125 C 51.003906 -75.828125 46.867188 -74.734375 43.078125 -72.546875 C 39.285156 -70.367188 36.210938 -67.179688 33.859375 -62.984375 C 31.503906 -58.796875 30.328125 -53.828125 30.328125 -48.078125 C 30.328125 -42.335938 31.503906 -37.3125 33.859375 -33 C 36.210938 -28.6875 39.3125 -25.378906 43.15625 -23.078125 C 47.007812 -20.785156 51.117188 -19.640625 55.484375 -19.640625 C 59.960938 -19.640625 64.15625 -20.757812 68.0625 -23 C 71.96875 -25.238281 75.070312 -28.457031 77.375 -32.65625 C 79.675781 -36.851562 80.828125 -41.878906 80.828125 -47.734375 Z M 80.828125 -47.734375 "/></g></g></g><g fill="#ffffff" fill-opacity="1"><g transform="translate(675.44514, 559.191812)"><g><path d="M 100.640625 -49.796875 C 100.640625 -46.359375 100.410156 -43.257812 99.953125 -40.5 L 30.15625 -40.5 C 30.726562 -33.601562 33.140625 -28.203125 37.390625 -24.296875 C 41.640625 -20.390625 46.867188 -18.4375 53.078125 -18.4375 C 62.035156 -18.4375 68.410156 -22.285156 72.203125 -29.984375 L 98.234375 -29.984375 C 95.472656 -20.796875 90.1875 -13.242188 82.375 -7.328125 C 74.5625 -1.410156 64.96875 1.546875 53.59375 1.546875 C 44.40625 1.546875 36.160156 -0.488281 28.859375 -4.5625 C 21.566406 -8.644531 15.878906 -14.421875 11.796875 -21.890625 C 7.722656 -29.359375 5.6875 -37.972656 5.6875 -47.734375 C 5.6875 -57.617188 7.695312 -66.289062 11.71875 -73.75 C 15.738281 -81.21875 21.367188 -86.960938 28.609375 -90.984375 C 35.847656 -95.003906 44.175781 -97.015625 53.59375 -97.015625 C 62.664062 -97.015625 70.789062 -95.0625 77.96875 -91.15625 C 85.15625 -87.25 90.726562 -81.707031 94.6875 -74.53125 C 98.65625 -67.351562 100.640625 -59.109375 100.640625 -49.796875 Z M 75.65625 -56.703125 C 75.539062 -62.898438 73.300781 -67.863281 68.9375 -71.59375 C 64.570312 -75.332031 59.226562 -77.203125 52.90625 -77.203125 C 46.925781 -77.203125 41.894531 -75.390625 37.8125 -71.765625 C 33.738281 -68.148438 31.242188 -63.128906 30.328125 -56.703125 Z M 75.65625 -56.703125 "/></g></g></g><g fill="#ffffff" fill-opacity="1"><g transform="translate(134.48729, 765.377698)"><g><path d="M 48.421875 1.546875 C 40.609375 1.546875 33.597656 0.140625 27.390625 -2.671875 C 21.191406 -5.484375 16.28125 -9.300781 12.65625 -14.125 C 9.039062 -18.957031 7.0625 -24.300781 6.71875 -30.15625 L 31.015625 -30.15625 C 31.472656 -26.476562 33.28125 -23.429688 36.4375 -21.015625 C 39.601562 -18.609375 43.539062 -17.40625 48.25 -17.40625 C 52.84375 -17.40625 56.429688 -18.320312 59.015625 -20.15625 C 61.609375 -22 62.90625 -24.359375 62.90625 -27.234375 C 62.90625 -30.328125 61.320312 -32.648438 58.15625 -34.203125 C 55 -35.753906 49.972656 -37.453125 43.078125 -39.296875 C 35.953125 -41.015625 30.117188 -42.789062 25.578125 -44.625 C 21.046875 -46.46875 17.144531 -49.285156 13.875 -53.078125 C 10.601562 -56.867188 8.96875 -61.984375 8.96875 -68.421875 C 8.96875 -73.703125 10.488281 -78.523438 13.53125 -82.890625 C 16.570312 -87.253906 20.9375 -90.695312 26.625 -93.21875 C 32.3125 -95.75 39.003906 -97.015625 46.703125 -97.015625 C 58.078125 -97.015625 67.148438 -94.171875 73.921875 -88.484375 C 80.703125 -82.796875 84.4375 -75.128906 85.125 -65.484375 L 62.03125 -65.484375 C 61.6875 -69.273438 60.109375 -72.289062 57.296875 -74.53125 C 54.484375 -76.769531 50.722656 -77.890625 46.015625 -77.890625 C 41.648438 -77.890625 38.285156 -77.082031 35.921875 -75.46875 C 33.566406 -73.863281 32.390625 -71.628906 32.390625 -68.765625 C 32.390625 -65.546875 34 -63.101562 37.21875 -61.4375 C 40.4375 -59.769531 45.4375 -58.070312 52.21875 -56.34375 C 59.113281 -54.625 64.800781 -52.84375 69.28125 -51 C 73.757812 -49.164062 77.632812 -46.320312 80.90625 -42.46875 C 84.175781 -38.625 85.867188 -33.546875 85.984375 -27.234375 C 85.984375 -21.710938 84.460938 -16.769531 81.421875 -12.40625 C 78.378906 -8.039062 74.015625 -4.625 68.328125 -2.15625 C 62.640625 0.3125 56.003906 1.546875 48.421875 1.546875 Z M 48.421875 1.546875 "/></g></g></g><g fill="#ffffff" fill-opacity="1"><g transform="translate(222.894865, 765.377698)"><g><path d="M 103.21875 -95.46875 L 44.109375 45.15625 L 18.4375 45.15625 L 39.125 -2.40625 L 0.859375 -95.46875 L 27.921875 -95.46875 L 52.5625 -28.78125 L 77.546875 -95.46875 Z M 103.21875 -95.46875 "/></g></g></g><g fill="#ffffff" fill-opacity="1"><g transform="translate(321.642509, 765.377698)"><g><path d="M 48.421875 1.546875 C 40.609375 1.546875 33.597656 0.140625 27.390625 -2.671875 C 21.191406 -5.484375 16.28125 -9.300781 12.65625 -14.125 C 9.039062 -18.957031 7.0625 -24.300781 6.71875 -30.15625 L 31.015625 -30.15625 C 31.472656 -26.476562 33.28125 -23.429688 36.4375 -21.015625 C 39.601562 -18.609375 43.539062 -17.40625 48.25 -17.40625 C 52.84375 -17.40625 56.429688 -18.320312 59.015625 -20.15625 C 61.609375 -22 62.90625 -24.359375 62.90625 -27.234375 C 62.90625 -30.328125 61.320312 -32.648438 58.15625 -34.203125 C 55 -35.753906 49.972656 -37.453125 43.078125 -39.296875 C 35.953125 -41.015625 30.117188 -42.789062 25.578125 -44.625 C 21.046875 -46.46875 17.144531 -49.285156 13.875 -53.078125 C 10.601562 -56.867188 8.96875 -61.984375 8.96875 -68.421875 C 8.96875 -73.703125 10.488281 -78.523438 13.53125 -82.890625 C 16.570312 -87.253906 20.9375 -90.695312 26.625 -93.21875 C 32.3125 -95.75 39.003906 -97.015625 46.703125 -97.015625 C 58.078125 -97.015625 67.148438 -94.171875 73.921875 -88.484375 C 80.703125 -82.796875 84.4375 -75.128906 85.125 -65.484375 L 62.03125 -65.484375 C 61.6875 -69.273438 60.109375 -72.289062 57.296875 -74.53125 C 54.484375 -76.769531 50.722656 -77.890625 46.015625 -77.890625 C 41.648438 -77.890625 38.285156 -77.082031 35.921875 -75.46875 C 33.566406 -73.863281 32.390625 -71.628906 32.390625 -68.765625 C 32.390625 -65.546875 34 -63.101562 37.21875 -61.4375 C 40.4375 -59.769531 45.4375 -58.070312 52.21875 -56.34375 C 59.113281 -54.625 64.800781 -52.84375 69.28125 -51 C 73.757812 -49.164062 77.632812 -46.320312 80.90625 -42.46875 C 84.175781 -38.625 85.867188 -33.546875 85.984375 -27.234375 C 85.984375 -21.710938 84.460938 -16.769531 81.421875 -12.40625 C 78.378906 -8.039062 74.015625 -4.625 68.328125 -2.15625 C 62.640625 0.3125 56.003906 1.546875 48.421875 1.546875 Z M 48.421875 1.546875 "/></g></g></g><g fill="#ffffff" fill-opacity="1"><g transform="translate(410.050084, 765.377698)"><g><path d="M 39.984375 -75.65625 L 39.984375 -29.46875 C 39.984375 -26.25 40.757812 -23.921875 42.3125 -22.484375 C 43.863281 -21.046875 46.472656 -20.328125 50.140625 -20.328125 L 61.34375 -20.328125 L 61.34375 0 L 46.1875 0 C 25.851562 0 15.6875 -9.878906 15.6875 -29.640625 L 15.6875 -75.65625 L 4.3125 -75.65625 L 4.3125 -95.46875 L 15.6875 -95.46875 L 15.6875 -119.078125 L 39.984375 -119.078125 L 39.984375 -95.46875 L 61.34375 -95.46875 L 61.34375 -75.65625 Z M 39.984375 -75.65625 "/></g></g></g><g fill="#ffffff" fill-opacity="1"><g transform="translate(471.401147, 765.377698)"><g><path d="M 100.640625 -49.796875 C 100.640625 -46.359375 100.410156 -43.257812 99.953125 -40.5 L 30.15625 -40.5 C 30.726562 -33.601562 33.140625 -28.203125 37.390625 -24.296875 C 41.640625 -20.390625 46.867188 -18.4375 53.078125 -18.4375 C 62.035156 -18.4375 68.410156 -22.285156 72.203125 -29.984375 L 98.234375 -29.984375 C 95.472656 -20.796875 90.1875 -13.242188 82.375 -7.328125 C 74.5625 -1.410156 64.96875 1.546875 53.59375 1.546875 C 44.40625 1.546875 36.160156 -0.488281 28.859375 -4.5625 C 21.566406 -8.644531 15.878906 -14.421875 11.796875 -21.890625 C 7.722656 -29.359375 5.6875 -37.972656 5.6875 -47.734375 C 5.6875 -57.617188 7.695312 -66.289062 11.71875 -73.75 C 15.738281 -81.21875 21.367188 -86.960938 28.609375 -90.984375 C 35.847656 -95.003906 44.175781 -97.015625 53.59375 -97.015625 C 62.664062 -97.015625 70.789062 -95.0625 77.96875 -91.15625 C 85.15625 -87.25 90.726562 -81.707031 94.6875 -74.53125 C 98.65625 -67.351562 100.640625 -59.109375 100.640625 -49.796875 Z M 75.65625 -56.703125 C 75.539062 -62.898438 73.300781 -67.863281 68.9375 -71.59375 C 64.570312 -75.332031 59.226562 -77.203125 52.90625 -77.203125 C 46.925781 -77.203125 41.894531 -75.390625 37.8125 -71.765625 C 33.738281 -68.148438 31.242188 -63.128906 30.328125 -56.703125 Z M 75.65625 -56.703125 "/></g></g></g><g fill="#ffffff" fill-opacity="1"><g transform="translate(572.216819, 765.377698)"><g><path d="M 130.453125 -96.84375 C 142.171875 -96.84375 151.617188 -93.253906 158.796875 -86.078125 C 165.984375 -78.898438 169.578125 -68.875 169.578125 -56 L 169.578125 0 L 145.4375 0 L 145.4375 -52.734375 C 145.4375 -60.203125 143.539062 -65.914062 139.75 -69.875 C 135.96875 -73.84375 130.800781 -75.828125 124.25 -75.828125 C 117.695312 -75.828125 112.492188 -73.84375 108.640625 -69.875 C 104.796875 -65.914062 102.875 -60.203125 102.875 -52.734375 L 102.875 0 L 78.75 0 L 78.75 -52.734375 C 78.75 -60.203125 76.851562 -65.914062 73.0625 -69.875 C 69.269531 -73.84375 64.101562 -75.828125 57.5625 -75.828125 C 50.894531 -75.828125 45.632812 -73.84375 41.78125 -69.875 C 37.9375 -65.914062 36.015625 -60.203125 36.015625 -52.734375 L 36.015625 0 L 11.890625 0 L 11.890625 -95.46875 L 36.015625 -95.46875 L 36.015625 -83.921875 C 39.117188 -87.941406 43.109375 -91.097656 47.984375 -93.390625 C 52.867188 -95.691406 58.242188 -96.84375 64.109375 -96.84375 C 71.578125 -96.84375 78.238281 -95.265625 84.09375 -92.109375 C 89.957031 -88.953125 94.492188 -84.441406 97.703125 -78.578125 C 100.804688 -84.097656 105.316406 -88.519531 111.234375 -91.84375 C 117.148438 -95.175781 123.554688 -96.84375 130.453125 -96.84375 Z M 130.453125 -96.84375 "/></g></g></g><g clip-path="url(#d9fd86deb6)"><path fill="#ffffff" d="M 284.242188 4.300781 C 290.625 1.019531 298.128906 0.00390625 305.132812 1.449219 C 314.871094 3.351562 323.511719 10.109375 327.789062 19.089844 C 328.90625 21.359375 329.613281 23.777344 330.324219 26.195312 C 337.738281 27.683594 344.59375 32.15625 348.507812 38.71875 C 352.355469 44.980469 353.558594 52.839844 351.601562 59.945312 C 349.558594 68.214844 343.261719 75.101562 335.417969 78.253906 C 333.246094 75.554688 330.28125 73.632812 326.886719 72.984375 C 325.808594 70.308594 324.21875 67.652344 321.53125 66.378906 C 319.578125 65.191406 317.214844 65.492188 315.042969 65.039062 C 313 63.484375 311.28125 61.433594 308.917969 60.3125 C 307.414062 59.382812 305.285156 59.078125 304.554688 57.265625 C 302.019531 52.128906 301.457031 46.296875 301.050781 40.640625 C 300.835938 38.71875 302.105469 37.140625 302.898438 35.523438 C 305.15625 37.035156 307.242188 38.871094 308.53125 41.308594 C 308.507812 38.742188 308.789062 36.042969 307.691406 33.621094 C 306.898438 31.550781 305.328125 29.910156 304.339844 27.921875 C 303.867188 25.761719 303.972656 23.496094 303.523438 21.335938 C 302.835938 17.320312 301.285156 13.457031 298.878906 10.152344 C 295.160156 14.472656 293.894531 20.320312 293.527344 25.894531 C 293.613281 28.699219 291.164062 30.535156 290.175781 32.953125 C 288.757812 35.675781 288.84375 38.847656 289.273438 41.804688 C 289.917969 38.871094 292.347656 37.078125 294.710938 35.542969 C 295.546875 37.164062 297.03125 38.675781 296.730469 40.640625 C 296.34375 46.253906 295.785156 52.042969 293.3125 57.179688 C 292.582031 59.144531 290.367188 59.578125 288.777344 60.589844 C 286.738281 61.671875 285.210938 63.464844 283.40625 64.886719 C 281.191406 65.535156 278.675781 65.234375 276.679688 66.617188 C 274.292969 67.867188 273.132812 70.394531 271.863281 72.640625 C 270.574219 73.570312 268.898438 73.742188 267.523438 74.539062 C 265.609375 75.425781 264.535156 77.390625 262.792969 78.46875 C 255.742188 75.921875 249.898438 70.242188 247.105469 63.226562 C 244.308594 56.445312 244.460938 48.523438 247.46875 41.828125 C 251.078125 33.710938 258.773438 27.835938 267.414062 26.109375 C 269.371094 16.800781 275.730469 8.554688 284.242188 4.300781 Z M 284.242188 4.300781 " fill-opacity="1" fill-rule="nonzero"/></g><g fill="#ffffff" fill-opacity="1"><g transform="translate(386.539556, 52.066646)"><g><path d="M 7.859375 -26.25 L 7.859375 0 L 2.59375 0 L 2.59375 -26.25 Z M 7.859375 -26.25 "/></g></g></g><g fill="#ffffff" fill-opacity="1"><g transform="translate(395.793366, 52.066646)"><g><path d="M 20.453125 -26.25 L 20.453125 -22 L 13.46875 -22 L 13.46875 0 L 8.203125 0 L 8.203125 -22 L 1.203125 -22 L 1.203125 -26.25 Z M 20.453125 -26.25 "/></g></g></g><g fill="#ffffff" fill-opacity="1"><g transform="translate(416.294689, 52.066646)"><g><path d="M 16.140625 0 L 10.34375 -10.234375 L 7.859375 -10.234375 L 7.859375 0 L 2.59375 0 L 2.59375 -26.25 L 12.453125 -26.25 C 14.484375 -26.25 16.210938 -25.890625 17.640625 -25.171875 C 19.066406 -24.460938 20.132812 -23.5 20.84375 -22.28125 C 21.5625 -21.0625 21.921875 -19.703125 21.921875 -18.203125 C 21.921875 -16.472656 21.421875 -14.910156 20.421875 -13.515625 C 19.421875 -12.128906 17.929688 -11.171875 15.953125 -10.640625 L 22.234375 0 Z M 7.859375 -14.171875 L 12.265625 -14.171875 C 13.691406 -14.171875 14.753906 -14.515625 15.453125 -15.203125 C 16.160156 -15.898438 16.515625 -16.863281 16.515625 -18.09375 C 16.515625 -19.289062 16.160156 -20.222656 15.453125 -20.890625 C 14.753906 -21.554688 13.691406 -21.890625 12.265625 -21.890625 L 7.859375 -21.890625 Z M 7.859375 -14.171875 "/></g></g></g><g fill="#ffffff" fill-opacity="1"><g transform="translate(439.203506, 52.066646)"><g/></g></g><g fill="#ffffff" fill-opacity="1"><g transform="translate(446.952628, 52.066646)"><g><path d="M 3.640625 -5.9375 C 6.054688 -7.945312 7.976562 -9.617188 9.40625 -10.953125 C 10.832031 -12.296875 12.019531 -13.695312 12.96875 -15.15625 C 13.925781 -16.613281 14.40625 -18.039062 14.40625 -19.4375 C 14.40625 -20.71875 14.101562 -21.722656 13.5 -22.453125 C 12.894531 -23.179688 11.96875 -23.546875 10.71875 -23.546875 C 9.46875 -23.546875 8.503906 -23.125 7.828125 -22.28125 C 7.148438 -21.445312 6.796875 -20.300781 6.765625 -18.84375 L 1.65625 -18.84375 C 1.757812 -21.851562 2.65625 -24.132812 4.34375 -25.6875 C 6.03125 -27.238281 8.179688 -28.015625 10.796875 -28.015625 C 13.648438 -28.015625 15.84375 -27.253906 17.375 -25.734375 C 18.90625 -24.222656 19.671875 -22.226562 19.671875 -19.75 C 19.671875 -17.789062 19.144531 -15.921875 18.09375 -14.140625 C 17.039062 -12.359375 15.835938 -10.804688 14.484375 -9.484375 C 13.128906 -8.171875 11.359375 -6.585938 9.171875 -4.734375 L 20.265625 -4.734375 L 20.265625 -0.375 L 1.6875 -0.375 L 1.6875 -4.28125 Z M 3.640625 -5.9375 "/></g></g></g><g fill="#ffffff" fill-opacity="1"><g transform="translate(467.3411, 52.066646)"><g><path d="M 2 -14.0625 C 2 -18.40625 2.78125 -21.800781 4.34375 -24.25 C 5.90625 -26.707031 8.503906 -27.9375 12.140625 -27.9375 C 15.773438 -27.9375 18.375 -26.707031 19.9375 -24.25 C 21.507812 -21.800781 22.296875 -18.40625 22.296875 -14.0625 C 22.296875 -9.695312 21.507812 -6.273438 19.9375 -3.796875 C 18.375 -1.316406 15.773438 -0.078125 12.140625 -0.078125 C 8.503906 -0.078125 5.90625 -1.316406 4.34375 -3.796875 C 2.78125 -6.273438 2 -9.695312 2 -14.0625 Z M 17.109375 -14.0625 C 17.109375 -15.914062 16.988281 -17.472656 16.75 -18.734375 C 16.507812 -20.003906 16.03125 -21.039062 15.3125 -21.84375 C 14.601562 -22.644531 13.546875 -23.046875 12.140625 -23.046875 C 10.742188 -23.046875 9.6875 -22.644531 8.96875 -21.84375 C 8.25 -21.039062 7.769531 -20.003906 7.53125 -18.734375 C 7.300781 -17.472656 7.1875 -15.914062 7.1875 -14.0625 C 7.1875 -12.15625 7.296875 -10.554688 7.515625 -9.265625 C 7.742188 -7.972656 8.222656 -6.929688 8.953125 -6.140625 C 9.679688 -5.359375 10.742188 -4.96875 12.140625 -4.96875 C 13.546875 -4.96875 14.613281 -5.359375 15.34375 -6.140625 C 16.070312 -6.929688 16.546875 -7.972656 16.765625 -9.265625 C 16.992188 -10.554688 17.109375 -12.15625 17.109375 -14.0625 Z M 17.109375 -14.0625 "/></g></g></g><g fill="#ffffff" fill-opacity="1"><g transform="translate(490.438002, 52.066646)"><g><path d="M 3.640625 -5.9375 C 6.054688 -7.945312 7.976562 -9.617188 9.40625 -10.953125 C 10.832031 -12.296875 12.019531 -13.695312 12.96875 -15.15625 C 13.925781 -16.613281 14.40625 -18.039062 14.40625 -19.4375 C 14.40625 -20.71875 14.101562 -21.722656 13.5 -22.453125 C 12.894531 -23.179688 11.96875 -23.546875 10.71875 -23.546875 C 9.46875 -23.546875 8.503906 -23.125 7.828125 -22.28125 C 7.148438 -21.445312 6.796875 -20.300781 6.765625 -18.84375 L 1.65625 -18.84375 C 1.757812 -21.851562 2.65625 -24.132812 4.34375 -25.6875 C 6.03125 -27.238281 8.179688 -28.015625 10.796875 -28.015625 C 13.648438 -28.015625 15.84375 -27.253906 17.375 -25.734375 C 18.90625 -24.222656 19.671875 -22.226562 19.671875 -19.75 C 19.671875 -17.789062 19.144531 -15.921875 18.09375 -14.140625 C 17.039062 -12.359375 15.835938 -10.804688 14.484375 -9.484375 C 13.128906 -8.171875 11.359375 -6.585938 9.171875 -4.734375 L 20.265625 -4.734375 L 20.265625 -0.375 L 1.6875 -0.375 L 1.6875 -4.28125 Z M 3.640625 -5.9375 "/></g></g></g><g fill="#ffffff" fill-opacity="1"><g transform="translate(510.826479, 52.066646)"><g><path d="M 2.0625 -20.203125 C 2.1875 -22.703125 3.070312 -24.632812 4.71875 -26 C 6.363281 -27.375 8.523438 -28.0625 11.203125 -28.0625 C 13.035156 -28.0625 14.601562 -27.738281 15.90625 -27.09375 C 17.207031 -26.457031 18.191406 -25.59375 18.859375 -24.5 C 19.523438 -23.40625 19.859375 -22.171875 19.859375 -20.796875 C 19.859375 -19.210938 19.445312 -17.875 18.625 -16.78125 C 17.8125 -15.695312 16.84375 -14.96875 15.71875 -14.59375 L 15.71875 -14.4375 C 17.175781 -13.988281 18.3125 -13.1875 19.125 -12.03125 C 19.9375 -10.882812 20.34375 -9.40625 20.34375 -7.59375 C 20.34375 -6.09375 20 -4.753906 19.3125 -3.578125 C 18.625 -2.398438 17.609375 -1.476562 16.265625 -0.8125 C 14.921875 -0.144531 13.3125 0.1875 11.4375 0.1875 C 8.601562 0.1875 6.296875 -0.523438 4.515625 -1.953125 C 2.734375 -3.378906 1.789062 -5.488281 1.6875 -8.28125 L 6.8125 -8.28125 C 6.851562 -7.050781 7.269531 -6.066406 8.0625 -5.328125 C 8.851562 -4.585938 9.941406 -4.21875 11.328125 -4.21875 C 12.597656 -4.21875 13.578125 -4.570312 14.265625 -5.28125 C 14.960938 -6 15.3125 -6.921875 15.3125 -8.046875 C 15.3125 -9.554688 14.832031 -10.632812 13.875 -11.28125 C 12.925781 -11.9375 11.445312 -12.265625 9.4375 -12.265625 L 8.34375 -12.265625 L 8.34375 -16.578125 L 9.4375 -16.578125 C 13 -16.578125 14.78125 -17.769531 14.78125 -20.15625 C 14.78125 -21.238281 14.457031 -22.078125 13.8125 -22.671875 C 13.175781 -23.273438 12.257812 -23.578125 11.0625 -23.578125 C 9.882812 -23.578125 8.972656 -23.253906 8.328125 -22.609375 C 7.691406 -21.972656 7.320312 -21.171875 7.21875 -20.203125 Z M 2.0625 -20.203125 "/></g></g></g></svg>